<?xml version="1.0" encoding="UTF-8" standalone="no"?>
<!-- Created with Inkscape (http://www.inkscape.org/) -->

<svg
   width="22.037012mm"
   height="22.947458mm"
   viewBox="0 0 22.037012 22.947458"
   version="1.1"
   id="svg1"
   xml:space="preserve"
   inkscape:export-filename="sidequester_stacked_cubes.svg"
   inkscape:export-xdpi="96"
   inkscape:export-ydpi="96"
   sodipodi:docname="favicon.svg"
   inkscape:version="1.4.3 (0d15f75, 2025-12-25)"
   xmlns:inkscape="http://www.inkscape.org/namespaces/inkscape"
   xmlns:sodipodi="http://sodipodi.sourceforge.net/DTD/sodipodi-0.dtd"
   xmlns="http://www.w3.org/2000/svg"
   xmlns:svg="http://www.w3.org/2000/svg"><sodipodi:namedview
     id="namedview1"
     pagecolor="#000000"
     bordercolor="#000000"
     borderopacity="0.25"
     inkscape:showpageshadow="2"
     inkscape:pageopacity="0.0"
     inkscape:pagecheckerboard="0"
     inkscape:deskcolor="#d1d1d1"
     inkscape:document-units="mm"
     inkscape:zoom="2"
     inkscape:cx="123.75"
     inkscape:cy="85.25"
     inkscape:window-width="2560"
     inkscape:window-height="1369"
     inkscape:window-x="2552"
     inkscape:window-y="-8"
     inkscape:window-maximized="1"
     inkscape:current-layer="svg1"
     inkscape:clip-to-page="true"><inkscape:page
       x="2.8045129e-06"
       y="2.8709078e-06"
       width="22.037012"
       height="22.947458"
       id="page2"
       margin="0"
       bleed="0" /></sodipodi:namedview><defs
     id="defs1" /><g
     transform="matrix(0.35277777,0,0,0.35277777,-3.3987142,-1.9639879)"
     id="g314"
     style="display:inline"
     inkscape:label="laravel cubes"><g
       id="g281"
       inkscape:label="t top right orange cube"
       transform="matrix(0.90282153,0,0,0.88428938,25.475855,-26.088164)"
       style="display:inline"><path
         fill="#ffffff"
         d="m 40.794919,55.013659 -0.263623,-13.005863 11.112822,4.660646 -0.0074,12.62648 -1.115236,-0.156263 z"
         fill-opacity="1"
         fill-rule="nonzero"
         id="path277"
         style="display:inline"
         sodipodi:nodetypes="cccccc" /><path
         fill="#ffffff"
         d="M 29.878952,59.742171 41.142575,54.37694 51.636718,59.294922 40.986327,64.380853 Z"
         fill-opacity="1"
         fill-rule="nonzero"
         id="path278"
         style="display:inline"
         sodipodi:nodetypes="ccccc" /><path
         fill="#ff7405"
         d="M 29.878952,59.742171 V 47.095684 l 10.652344,-5.087888 0.263623,13.005863 -9.808594,4.527344 z"
         fill-opacity="1"
         fill-rule="nonzero"
         id="path280"
         style="display:inline"
         sodipodi:nodetypes="cccccc" /><path
         fill="#ff7405"
         d="m 40.986327,64.380853 10.650391,-5.085931 0.0074,-12.62648 -11.112822,-4.660646 -10.652344,5.087888 v 12.646487 c 0.0039,0.15625 11.107422,4.638682 11.107422,4.638682 z m -0.07422,-21.492194 10.12454,4.19188 -0.03079,11.476089 -9.863282,-4.179688 z m -0.117188,12.125 9.726563,4.125 -9.550781,4.515625 -9.984376,-4.113281 z m -10.289062,-7.53125 9.679687,-4.578125 0.234375,11.484375 -9.9375,4.59375 z"
         fill-opacity="1"
         fill-rule="nonzero"
         id="path281"
         style="display:inline"
         sodipodi:nodetypes="ccccccccccccccccccccccc" /></g><g
       id="g287"
       inkscape:label="t top left orange cube"
       transform="matrix(0.99993161,0.01518216,-0.0151827,0.99996737,-19.335706,-31.908339)"
       style="display:inline"><path
         fill="#ffffff"
         d="m 40.794919,55.013659 -0.263623,-13.005863 11.112822,4.660646 -0.0074,12.62648 -1.115236,-0.156263 z"
         fill-opacity="1"
         fill-rule="nonzero"
         id="path283"
         style="display:inline"
         sodipodi:nodetypes="cccccc" /><path
         fill="#ffffff"
         d="M 29.878952,59.742171 41.142575,54.37694 51.636718,59.294922 40.986327,64.380853 Z"
         fill-opacity="1"
         fill-rule="nonzero"
         id="path284"
         style="display:inline"
         sodipodi:nodetypes="ccccc" /><path
         fill="#ff7405"
         d="M 29.878952,59.742171 V 47.095684 l 10.652344,-5.087888 0.263623,13.005863 -9.808594,4.527344 z"
         fill-opacity="1"
         fill-rule="nonzero"
         id="path286"
         style="display:inline"
         sodipodi:nodetypes="cccccc" /><path
         fill="#ff7405"
         d="M 40.986327,64.380853 52.146869,59.052013 51.644118,46.668442 40.531296,42.007796 29.878952,47.095684 v 12.646487 c 0.0039,0.15625 11.107422,4.638682 11.107422,4.638682 z m -0.07422,-21.492194 10.12454,4.19188 -0.03079,11.476089 -9.863282,-4.179688 z m -0.117188,12.125 10.15011,4.105727 -9.974328,4.534898 -9.984376,-4.113281 z m -10.289062,-7.53125 9.679687,-4.578125 0.234375,11.484375 -9.9375,4.59375 z"
         fill-opacity="1"
         fill-rule="nonzero"
         id="path287"
         style="display:inline"
         sodipodi:nodetypes="ccccccccccccccccccccccc" /></g><g
       id="g269"
       inkscape:label="t grey cube"
       transform="translate(2.01361,-31.856371)"
       style="display:inline"><path
         fill="#ffffff"
         d="m 40.794919,55.013659 -0.263623,-13.005863 11.112822,4.660646 -0.0074,12.62648 -1.115236,-0.156263 z"
         fill-opacity="1"
         fill-rule="nonzero"
         id="path265"
         style="display:inline"
         sodipodi:nodetypes="cccccc" /><path
         fill="#ffffff"
         d="M 29.878952,59.742171 41.142575,54.37694 51.636718,59.294922 40.986327,64.380853 Z"
         fill-opacity="1"
         fill-rule="nonzero"
         id="path266"
         style="display:inline"
         sodipodi:nodetypes="ccccc" /><path
         fill="#ff7405"
         d="M 29.878952,59.742171 V 47.095684 l 10.652344,-5.087888 0.263623,13.005863 -9.808594,4.527344 z"
         fill-opacity="1"
         fill-rule="nonzero"
         id="path268"
         style="display:inline;fill:#737373;fill-opacity:1"
         sodipodi:nodetypes="cccccc" /><path
         fill="#ff7405"
         d="m 40.986327,64.380853 10.650391,-5.085931 0.0074,-12.62648 -11.112822,-4.660646 -10.652344,5.087888 v 12.646487 c 0.0039,0.15625 11.107422,4.638682 11.107422,4.638682 z m 0.31382,-21.345882 9.689625,4.162756 0.0064,11.156005 -9.690689,-4.056813 z m -0.505228,11.978688 9.726563,4.125 -9.550781,4.515625 -9.984376,-4.113281 z m -10.289062,-7.53125 9.679687,-4.578125 0.234375,11.484375 -9.9375,4.59375 z"
         fill-opacity="1"
         fill-rule="nonzero"
         id="path269"
         style="display:inline;fill:#737373;fill-opacity:1"
         sodipodi:nodetypes="ccccccccccccccccccccccc" /></g><g
       id="g263"
       inkscape:label="t middle orange cube"
       transform="translate(2.0320755,-19.162235)"
       style="display:inline"><path
         fill="#ffffff"
         d="m 40.794919,55.013659 -0.263623,-13.005863 11.112822,4.660646 -0.0074,12.62648 -1.115236,-0.156263 z"
         fill-opacity="1"
         fill-rule="nonzero"
         id="path259"
         style="display:inline"
         sodipodi:nodetypes="cccccc" /><path
         fill="#ffffff"
         d="M 29.878952,59.742171 41.142575,54.37694 51.636718,59.294922 40.986327,64.380853 Z"
         fill-opacity="1"
         fill-rule="nonzero"
         id="path260"
         style="display:inline"
         sodipodi:nodetypes="ccccc" /><path
         fill="#ff7405"
         d="M 29.878952,59.742171 V 47.095684 l 10.652344,-5.087888 0.263623,13.005863 -9.808594,4.527344 z"
         fill-opacity="1"
         fill-rule="nonzero"
         id="path262"
         style="display:inline"
         sodipodi:nodetypes="cccccc" /><path
         fill="#ff7405"
         d="m 40.986327,64.380853 10.650391,-4.953348 0.0074,-12.759063 -11.112822,-4.660646 -10.652344,5.087888 v 12.646487 c 0.0039,0.15625 11.107422,4.638682 11.107422,4.638682 z m -0.07422,-21.492194 10.03079,4.28563 0.02981,11.200038 -9.830136,-4.146542 z m -0.117188,12.125 9.726563,4.125 -9.550781,4.515625 -9.984376,-4.113281 z m -10.289062,-7.53125 9.679687,-4.578125 0.234375,11.484375 -9.9375,4.59375 z"
         fill-opacity="1"
         fill-rule="nonzero"
         id="path263"
         style="display:inline"
         sodipodi:nodetypes="ccccccccccccccccccccccc" /></g><g
       id="g257"
       inkscape:label="t blue cube"
       transform="translate(2.0064555,-6.4568989)"
       style="display:inline"><path
         fill="#ffffff"
         d="m 40.794919,55.013659 0.117552,-12.492106 10.731647,4.146889 -0.0074,12.62648 -1.115236,-0.156263 z"
         fill-opacity="1"
         fill-rule="nonzero"
         id="path253"
         style="display:inline"
         sodipodi:nodetypes="cccccc" /><path
         fill="#ffffff"
         d="M 29.878952,59.742171 41.142575,54.37694 51.636718,59.294922 40.986327,64.380853 Z"
         fill-opacity="1"
         fill-rule="nonzero"
         id="path254"
         style="display:inline"
         sodipodi:nodetypes="ccccc" /><path
         fill="#ff7405"
         d="M 29.878952,59.742171 V 47.095684 l 10.851218,-4.905587 -0.150694,12.210368 -9.593147,5.140538 z"
         fill-opacity="1"
         fill-rule="nonzero"
         id="path256"
         style="display:inline;fill:#0a72bf;fill-opacity:1"
         sodipodi:nodetypes="cccccc" /><path
         fill="#ff7405"
         d="m 40.986327,64.380853 10.650391,-5.085931 0.04055,-12.609907 -10.947094,-4.627501 -10.851218,5.03817 v 12.646487 c 0.0039,0.15625 11.107422,4.638682 11.107422,4.638682 z m 0.183593,-21.257819 9.726102,4.09813 0.01608,11.030776 -9.675782,-4.085938 z m -0.375001,11.890625 9.726563,4.125 -9.550781,4.515625 -9.984376,-4.113281 z m -10.289062,-7.53125 9.679687,-4.578125 0.234375,11.484375 -9.9375,4.59375 z"
         fill-opacity="1"
         fill-rule="nonzero"
         id="path257"
         style="display:inline;fill:#0a72bf;fill-opacity:1"
         sodipodi:nodetypes="ccccccccccccccccccccccc" /></g><g
       id="g140-8"
       inkscape:label="t yellow cube"
       transform="translate(1.9753855,6.2342659)"
       style="display:inline"><path
         fill="#ffffff"
         d="m 40.794919,55.013659 0.134125,-12.442387 10.715074,4.09717 -0.0074,12.62648 -1.115236,-0.156263 z"
         fill-opacity="1"
         fill-rule="nonzero"
         id="path300-2"
         style="display:inline"
         sodipodi:nodetypes="cccccc" /><path
         fill="#ffffff"
         d="M 29.878952,59.742171 41.142575,54.37694 51.636718,59.294922 40.986327,64.380853 Z"
         fill-opacity="1"
         fill-rule="nonzero"
         id="path303-4"
         style="display:inline"
         sodipodi:nodetypes="ccccc" /><path
         fill="#ff7405"
         d="M 29.878952,59.742171 V 47.095684 l 10.768354,-4.92216 0.147613,12.840135 -9.808594,4.527344 z"
         fill-opacity="1"
         fill-rule="nonzero"
         id="path306-5"
         style="display:inline;fill:#e5b048;fill-opacity:1"
         sodipodi:nodetypes="cccccc" /><path
         fill="#ff7405"
         d="m 40.986327,64.380853 10.650391,-5.085931 0.0074,-12.62648 -10.963667,-4.6275 -10.801499,5.054742 v 12.646487 c 0.0039,0.15625 11.107422,4.638682 11.107422,4.638682 z m 0.224091,-21.326466 9.710219,4.175307 -0.03079,11.144633 -9.714126,-4.01396 z m -0.415499,11.959272 9.726563,4.125 -9.550781,4.515625 -9.984376,-4.113281 z m -10.289062,-7.53125 9.679687,-4.578125 0.234375,11.484375 -9.9375,4.59375 z"
         fill-opacity="1"
         fill-rule="nonzero"
         id="path309-5"
         style="display:inline;fill:#e5b048;fill-opacity:1"
         sodipodi:nodetypes="ccccccccccccccccccccccc" /></g><g
       id="g275"
       inkscape:label="t teal cube"
       transform="translate(-8.9647445,-36.440588)"
       style="display:inline"><path
         fill="#ffffff"
         d="m 40.794919,55.013659 -0.263623,-13.005863 11.112822,4.660646 -0.0074,12.62648 -1.115236,-0.156263 z"
         fill-opacity="1"
         fill-rule="nonzero"
         id="path271"
         style="display:inline"
         sodipodi:nodetypes="cccccc" /><path
         fill="#ffffff"
         d="M 29.878952,59.742171 41.142575,54.37694 51.636718,59.294922 40.986327,64.380853 Z"
         fill-opacity="1"
         fill-rule="nonzero"
         id="path272"
         style="display:inline"
         sodipodi:nodetypes="ccccc" /><path
         fill="#ff7405"
         d="M 29.878952,59.742171 V 47.095684 l 10.652344,-5.087888 0.263623,13.005863 -9.808594,4.527344 z"
         fill-opacity="1"
         fill-rule="nonzero"
         id="path274"
         style="display:inline;fill:#0ab0a6;fill-opacity:1"
         sodipodi:nodetypes="cccccc" /><path
         fill="#ff7405"
         d="m 40.986327,64.380853 10.650391,-5.085931 0.0074,-12.62648 -11.112822,-4.660646 -10.652344,5.087888 v 12.646487 c 0.0039,0.15625 11.107422,4.638682 11.107422,4.638682 z m -0.07422,-21.492194 10.12454,4.19188 -0.03079,11.476089 -9.863282,-4.179688 z m -0.117188,12.125 9.726563,4.125 -9.550781,4.515625 -9.984376,-4.113281 z m -10.289062,-7.53125 9.679687,-4.578125 0.234375,11.484375 -9.9375,4.59375 z"
         fill-opacity="1"
         fill-rule="nonzero"
         id="path275"
         style="display:inline;fill:#0ab0a6;fill-opacity:1"
         sodipodi:nodetypes="ccccccccccccccccccccccc" /></g></g></svg>
