<?xml version="1.0" encoding="UTF-8" standalone="no"?>
<!-- Created with Inkscape (http://www.inkscape.org/) -->

<svg
   width="119.35373mm"
   height="78.798882mm"
   viewBox="0 0 119.35373 78.798882"
   version="1.1"
   id="svg1"
   xml:space="preserve"
   inkscape:export-filename="sidequester.svg"
   inkscape:export-xdpi="96"
   inkscape:export-ydpi="96"
   sodipodi:docname="sidequester_logo.svg"
   inkscape:version="1.4.3 (0d15f75, 2025-12-25)"
   xmlns:inkscape="http://www.inkscape.org/namespaces/inkscape"
   xmlns:sodipodi="http://sodipodi.sourceforge.net/DTD/sodipodi-0.dtd"
   xmlns="http://www.w3.org/2000/svg"
   xmlns:svg="http://www.w3.org/2000/svg"><sodipodi:namedview
     id="namedview1"
     pagecolor="#000000"
     bordercolor="#000000"
     borderopacity="0.25"
     inkscape:showpageshadow="2"
     inkscape:pageopacity="0.0"
     inkscape:pagecheckerboard="0"
     inkscape:deskcolor="#d1d1d1"
     inkscape:document-units="mm"
     inkscape:zoom="1"
     inkscape:cx="301"
     inkscape:cy="4.5"
     inkscape:window-width="2304"
     inkscape:window-height="1430"
     inkscape:window-x="-11"
     inkscape:window-y="-11"
     inkscape:window-maximized="1"
     inkscape:current-layer="g314"
     inkscape:clip-to-page="true"><inkscape:page
       x="0"
       y="0"
       width="119.35373"
       height="78.798882"
       id="page2"
       margin="0"
       bleed="0" /></sodipodi:namedview><defs
     id="defs1"><clipPath
       id="f8f2e01b76"><path
         d="M 74.457031,107 H 303.95703 V 212.38281 H 74.457031 Z m 0,0"
         clip-rule="nonzero"
         id="path13" /></clipPath><clipPath
       id="c708f30429"><path
         d="M 120,69.132812 H 303.95703 V 190 H 120 Z m 0,0"
         clip-rule="nonzero"
         id="path14" /></clipPath></defs><g
     transform="matrix(0.35277777,0,0,0.35277777,-1.0761036,55.65133)"
     id="g180"
     style="display:inline;fill:#ff7405;fill-opacity:1"
     inkscape:label="quester"><path
       d="m 40.421875,2.203125 -5,-4.875 C 32.210938,-0.390625 28.195312,0.75 23.375,0.75 c -3.605469,0 -6.714844,-0.589844 -9.328125,-1.765625 -2.605469,-1.175781 -4.757813,-2.757813 -6.453125,-4.75 -1.699219,-1.988281 -2.964844,-4.238281 -3.796875,-6.75 -0.835937,-2.519531 -1.25,-5.113281 -1.25,-7.78125 0,-2.664063 0.425781,-5.242187 1.28125,-7.734375 0.851563,-2.5 2.140625,-4.742188 3.859375,-6.734375 1.71875,-1.988281 3.878906,-3.570313 6.484375,-4.75 2.613281,-1.175781 5.679687,-1.765625 9.203125,-1.765625 3.550781,0 6.628906,0.589844 9.234375,1.765625 2.613281,1.179687 4.769531,2.761719 6.46875,4.75 1.695313,1.992187 2.953125,4.246094 3.765625,6.765625 0.8125,2.511719 1.21875,5.078125 1.21875,7.703125 0,2.367187 -0.328125,4.679687 -0.984375,6.9375 -0.65625,2.261719 -1.664063,4.320313 -3.015625,6.171875 l 4.875,4.8125 z M 23.375,-5.28125 c 2.394531,0 4.488281,-0.421875 6.28125,-1.265625 C 31.457031,-7.398438 32.945312,-8.550781 34.125,-10 c 1.175781,-1.445312 2.050781,-3.066406 2.625,-4.859375 0.582031,-1.800781 0.875,-3.632813 0.875,-5.5 0,-1.851563 -0.273438,-3.664063 -0.8125,-5.4375 -0.53125,-1.78125 -1.371094,-3.382813 -2.515625,-4.8125 -1.136719,-1.4375 -2.605469,-2.585937 -4.40625,-3.453125 -1.804687,-0.875 -3.976563,-1.3125 -6.515625,-1.3125 -2.4375,0 -4.558594,0.429688 -6.359375,1.28125 -1.792969,0.855469 -3.289063,2.007812 -4.484375,3.453125 -1.199219,1.449219 -2.089844,3.085937 -2.671875,4.90625 -0.585937,1.8125 -0.875,3.667969 -0.875,5.5625 0,1.855469 0.296875,3.671875 0.890625,5.453125 0.601562,1.773438 1.503906,3.367188 2.703125,4.78125 1.195313,1.40625 2.691406,2.539062 4.484375,3.390625 1.800781,0.84375 3.90625,1.265625 6.3125,1.265625 z m 0,0"
       id="path145"
       style="display:inline;fill:#ff7405;fill-opacity:1"
       transform="translate(0.50349745,52.432924)" /><path
       d="m 21.75,0.8125 c -3.136719,0 -6.011719,-0.667969 -8.625,-2 -2.605469,-1.332031 -4.683594,-3.300781 -6.234375,-5.90625 -1.542969,-2.613281 -2.3125,-5.832031 -2.3125,-9.65625 v -23.84375 h 6.4375 V -16.75 c 0,3.742188 1.03125,6.609375 3.09375,8.609375 2.070313,1.992187 4.691406,2.984375 7.859375,2.984375 3.09375,0 5.632812,-0.992188 7.625,-2.984375 2,-2 3,-4.867187 3,-8.609375 v -23.84375 h 6.4375 V -16.75 c 0,3.980469 -0.789062,7.265625 -2.359375,9.859375 C 35.109375,-4.304688 33.007812,-2.375 30.375,-1.09375 27.75,0.175781 24.875,0.8125 21.75,0.8125 Z m 0,0"
       id="path148"
       style="display:inline;fill:#ff7405;fill-opacity:1"
       transform="translate(47.242463,52.432924)" /><path
       d="M 5.109375,0 V -40.59375 H 34.90625 v 6.328125 H 11.59375 V -23.3125 h 22.390625 v 6.03125 H 11.59375 V -6.375 H 35.078125 V 0 Z m 0,0"
       id="path151"
       style="display:inline;fill:#ff7405;fill-opacity:1"
       transform="translate(90.850037,52.432924)" /><path
       d="m 19.25,0.8125 c -3.90625,0 -7.328125,-0.6875 -10.265625,-2.0625 -2.9375,-1.375 -5.335937,-3.757812 -7.1875,-7.15625 l 4.875,-3.25 c 1.46875,2.480469 3.347656,4.214844 5.640625,5.203125 2.300781,0.980469 4.632812,1.46875 7,1.46875 1.625,0 3.226562,-0.203125 4.8125,-0.609375 1.582031,-0.40625 2.882812,-1.097656 3.90625,-2.078125 1.03125,-0.988281 1.546875,-2.335937 1.546875,-4.046875 0,-1.382812 -0.46875,-2.507812 -1.40625,-3.375 C 27.242188,-15.96875 26,-16.644531 24.4375,-17.125 c -1.5625,-0.488281 -3.3125,-0.867188 -5.25,-1.140625 -2.011719,-0.3125 -3.953125,-0.6875 -5.828125,-1.125 -1.875,-0.445313 -3.558594,-1.09375 -5.046875,-1.9375 -1.480469,-0.851563 -2.65625,-1.984375 -3.53125,-3.390625 -0.867188,-1.414062 -1.296875,-3.207031 -1.296875,-5.375 0,-1.9375 0.460937,-3.609375 1.390625,-5.015625 0.925781,-1.40625 2.140625,-2.5625 3.640625,-3.46875 1.507813,-0.914063 3.191406,-1.59375 5.046875,-2.03125 1.863281,-0.445313 3.722656,-0.671875 5.578125,-0.671875 1.96875,0 3.890625,0.195312 5.765625,0.578125 1.875,0.386719 3.625,1.074219 5.25,2.0625 1.625,0.980469 2.992188,2.382813 4.109375,4.203125 l -4.921875,3.296875 C 28.375,-32.566406 26.988281,-33.6875 25.1875,-34.5 c -1.792969,-0.8125 -3.75,-1.21875 -5.875,-1.21875 -2.710938,0 -4.953125,0.523438 -6.734375,1.5625 -1.773437,1.042969 -2.65625,2.433594 -2.65625,4.171875 0,1.324219 0.453125,2.359375 1.359375,3.109375 0.90625,0.75 2.101562,1.324219 3.59375,1.71875 1.488281,0.386719 3.117188,0.714844 4.890625,0.984375 2.09375,0.304687 4.113281,0.710937 6.0625,1.21875 1.957031,0.5 3.695313,1.203125 5.21875,2.109375 1.53125,0.90625 2.75,2.09375 3.65625,3.5625 0.90625,1.46875 1.359375,3.324219 1.359375,5.5625 0,2.28125 -0.476562,4.21875 -1.421875,5.8125 -0.949219,1.585938 -2.226563,2.871094 -3.828125,3.859375 -1.605469,0.980469 -3.402344,1.699219 -5.390625,2.15625 C 23.429688,0.578125 21.375,0.8125 19.25,0.8125 Z m 0,0"
       id="path154"
       style="display:inline;fill:#ff7405;fill-opacity:1"
       transform="translate(129.18062,52.432924)" /><path
       d="M 5.109375,0 V -40.59375 H 34.90625 v 6.328125 H 11.59375 V -23.3125 h 22.390625 v 6.03125 H 11.59375 V -6.375 H 35.078125 V 0 Z m 0,0"
       id="path172"
       style="display:inline;fill:#ff7405;fill-opacity:1"
       transform="translate(239.68482,52.432924)" /><path
       d="M 5.109375,0 V -40.59375 H 24 c 3.132812,0 5.765625,0.632812 7.890625,1.890625 2.125,1.261719 3.726563,2.90625 4.8125,4.9375 1.082031,2.023437 1.625,4.171875 1.625,6.453125 0,1.898438 -0.359375,3.746094 -1.078125,5.546875 -0.710938,1.792969 -1.875,3.328125 -3.5,4.609375 -1.625,1.273438 -3.773438,2.101562 -6.4375,2.484375 L 39.421875,-1.15625 40.125,0 H 32.53125 L 20.171875,-14.03125 H 11.59375 V 0 Z m 6.484375,-19.953125 h 12.359375 c 2.664063,0 4.625,-0.722656 5.875,-2.171875 1.257813,-1.445312 1.890625,-3.132812 1.890625,-5.0625 0,-1.238281 -0.273438,-2.414062 -0.8125,-3.53125 C 30.363281,-31.84375 29.519531,-32.769531 28.375,-33.5 27.238281,-34.238281 25.78125,-34.609375 24,-34.609375 H 11.59375 Z m 0,0"
       id="path175"
       style="display:inline;fill:#ff7405;fill-opacity:1"
       transform="translate(278.01541,52.432924)" /></g><g
     transform="matrix(0.35277777,0,0,0.35277777,56.426679,53.88744)"
     id="g314"
     style="display:inline"
     inkscape:label="laravel cubes"><g
       id="g281"
       inkscape:label="t top right orange cube"
       transform="matrix(0.91865986,0,0,0.87500437,25.505207,-25.396873)"
       style="display:inline"><path
         fill="#ffffff"
         d="m 40.794919,55.013659 -0.263623,-13.005863 11.112822,4.660646 -0.0074,12.62648 -1.115236,-0.156263 z"
         fill-opacity="1"
         fill-rule="nonzero"
         id="path277"
         style="display:inline;fill:#b95200;fill-opacity:1"
         sodipodi:nodetypes="cccccc" /><path
         fill="#ffffff"
         d="M 29.878952,59.742171 41.142575,54.37694 51.636718,59.294922 40.986327,64.380853 Z"
         fill-opacity="1"
         fill-rule="nonzero"
         id="path278"
         style="display:inline;fill:#b95200;fill-opacity:1"
         sodipodi:nodetypes="ccccc" /><path
         fill="#ff7405"
         d="M 29.878952,59.742171 V 47.095684 l 10.652344,-5.087888 0.263623,13.005863 -9.808594,4.527344 z"
         fill-opacity="1"
         fill-rule="nonzero"
         id="path280"
         style="display:inline;fill:#b95200;fill-opacity:1"
         sodipodi:nodetypes="cccccc" /><path
         fill="#ff7405"
         d="m 40.986327,64.380853 10.650391,-5.085931 0.0074,-12.62648 -11.112822,-4.660646 -10.652344,5.087888 v 12.646487 c 0.0039,0.15625 11.107422,4.638682 11.107422,4.638682 z m -0.07422,-21.492194 10.12454,4.19188 -0.03079,11.476089 -9.863282,-4.179688 z m -0.117188,12.125 9.726563,4.125 -9.550781,4.515625 -9.984376,-4.113281 z m -10.289062,-7.53125 9.679687,-4.578125 0.234375,11.484375 -9.9375,4.59375 z"
         fill-opacity="1"
         fill-rule="nonzero"
         id="path281"
         style="display:inline"
         sodipodi:nodetypes="ccccccccccccccccccccccc" /></g><g
       id="g287"
       inkscape:label="t top left orange cube"
       transform="matrix(0.91102262,0.01351919,-0.01383273,0.89043629,-13.572349,-25.740968)"
       style="display:inline"><path
         fill="#ffffff"
         d="m 40.794919,55.013659 -0.263623,-13.005863 11.112822,4.660646 -0.0074,12.62648 -1.115236,-0.156263 z"
         fill-opacity="1"
         fill-rule="nonzero"
         id="path283"
         style="display:inline;fill:#b95200;fill-opacity:1"
         sodipodi:nodetypes="cccccc" /><path
         fill="#ffffff"
         d="M 29.878952,59.742171 41.142575,54.37694 51.636718,59.294922 40.986327,64.380853 Z"
         fill-opacity="1"
         fill-rule="nonzero"
         id="path284"
         style="display:inline;fill:#b95200;fill-opacity:1"
         sodipodi:nodetypes="ccccc" /><path
         fill="#ff7405"
         d="M 29.878952,59.742171 V 47.095684 l 10.652344,-5.087888 0.263623,13.005863 -9.808594,4.527344 z"
         fill-opacity="1"
         fill-rule="nonzero"
         id="path286"
         style="display:inline;fill:#b95200;fill-opacity:1"
         sodipodi:nodetypes="cccccc" /><path
         fill="#ff7405"
         d="M 40.986327,64.380853 52.146869,59.052013 51.644118,46.668442 40.531296,42.007796 29.878952,47.095684 v 12.646487 c 0.0039,0.15625 11.107422,4.638682 11.107422,4.638682 z m -0.07422,-21.492194 10.12454,4.19188 -0.03079,11.476089 -9.863282,-4.179688 z m -0.117188,12.125 10.15011,4.105727 -9.974328,4.534898 -9.984376,-4.113281 z m -10.289062,-7.53125 9.679687,-4.578125 0.234375,11.484375 -9.9375,4.59375 z"
         fill-opacity="1"
         fill-rule="nonzero"
         id="path287"
         style="display:inline"
         sodipodi:nodetypes="ccccccccccccccccccccccc" /></g><g
       id="g269"
       inkscape:label="t grey cube"
       transform="matrix(0.91108493,0,0,0.89046535,5.8786914,-25.694692)"
       style="display:inline"><path
         fill="#ffffff"
         d="m 40.794919,55.013659 -0.263623,-13.005863 11.112822,4.660646 -0.0074,12.62648 -1.115236,-0.156263 z"
         fill-opacity="1"
         fill-rule="nonzero"
         id="path265"
         style="display:inline;fill:#595959;fill-opacity:1"
         sodipodi:nodetypes="cccccc" /><path
         fill="#ffffff"
         d="M 29.878952,59.742171 41.142575,54.37694 51.636718,59.294922 40.986327,64.380853 Z"
         fill-opacity="1"
         fill-rule="nonzero"
         id="path266"
         style="display:inline;fill:#595959;fill-opacity:1"
         sodipodi:nodetypes="ccccc" /><path
         fill="#ff7405"
         d="M 29.878952,59.742171 V 47.095684 l 10.652344,-5.087888 0.263623,13.005863 -9.808594,4.527344 z"
         fill-opacity="1"
         fill-rule="nonzero"
         id="path268"
         style="display:inline;fill:#595959;fill-opacity:1"
         sodipodi:nodetypes="cccccc" /><path
         fill="#ff7405"
         d="m 40.986327,64.380853 10.650391,-5.085931 0.0074,-12.62648 -11.112822,-4.660646 -10.652344,5.087888 v 12.646487 c 0.0039,0.15625 11.107422,4.638682 11.107422,4.638682 z m 0.31382,-21.345882 9.689625,4.162756 0.0064,11.156005 -9.690689,-4.056813 z m -0.505228,11.978688 9.726563,4.125 -9.550781,4.515625 -9.984376,-4.113281 z m -10.289062,-7.53125 9.679687,-4.578125 0.234375,11.484375 -9.9375,4.59375 z"
         fill-opacity="1"
         fill-rule="nonzero"
         id="path269"
         style="display:inline;fill:#737373;fill-opacity:1"
         sodipodi:nodetypes="ccccccccccccccccccccccc" /></g><g
       id="g263"
       inkscape:label="t middle orange cube"
       transform="matrix(0.91108493,0,0,0.89046535,5.8955151,-14.391004)"
       style="display:inline"><path
         fill="#ffffff"
         d="m 40.794919,55.013659 -0.263623,-13.005863 11.112822,4.660646 -0.0074,12.62648 -1.115236,-0.156263 z"
         fill-opacity="1"
         fill-rule="nonzero"
         id="path259"
         style="display:inline;fill:#b95200;fill-opacity:1"
         sodipodi:nodetypes="cccccc" /><path
         fill="#ffffff"
         d="M 29.878952,59.742171 41.142575,54.37694 51.636718,59.294922 40.986327,64.380853 Z"
         fill-opacity="1"
         fill-rule="nonzero"
         id="path260"
         style="display:inline;fill:#b95200;fill-opacity:1"
         sodipodi:nodetypes="ccccc" /><path
         fill="#ff7405"
         d="M 29.878952,59.742171 V 47.095684 l 10.652344,-5.087888 0.263623,13.005863 -9.808594,4.527344 z"
         fill-opacity="1"
         fill-rule="nonzero"
         id="path262"
         style="display:inline;fill:#b95200;fill-opacity:1"
         sodipodi:nodetypes="cccccc" /><path
         fill="#ff7405"
         d="m 40.986327,64.380853 10.650391,-4.953348 0.0074,-12.759063 -11.112822,-4.660646 -10.652344,5.087888 v 12.646487 c 0.0039,0.15625 11.107422,4.638682 11.107422,4.638682 z m -0.07422,-21.492194 10.03079,4.28563 0.02981,11.200038 -9.830136,-4.146542 z m -0.117188,12.125 9.726563,4.125 -9.550781,4.515625 -9.984376,-4.113281 z m -10.289062,-7.53125 9.679687,-4.578125 0.234375,11.484375 -9.9375,4.59375 z"
         fill-opacity="1"
         fill-rule="nonzero"
         id="path263"
         style="display:inline"
         sodipodi:nodetypes="ccccccccccccccccccccccc" /></g><g
       id="g257"
       inkscape:label="t blue cube"
       transform="matrix(0.91108493,0,0,0.89046535,5.8721731,-3.0773426)"
       style="display:inline"><path
         fill="#ffffff"
         d="m 40.794919,55.013659 0.117552,-12.492106 10.731647,4.146889 -0.0074,12.62648 -1.115236,-0.156263 z"
         fill-opacity="1"
         fill-rule="nonzero"
         id="path253"
         style="display:inline;fill:#135281;fill-opacity:1"
         sodipodi:nodetypes="cccccc" /><path
         fill="#ffffff"
         d="M 29.878952,59.742171 41.142575,54.37694 51.636718,59.294922 40.986327,64.380853 Z"
         fill-opacity="1"
         fill-rule="nonzero"
         id="path254"
         style="display:inline"
         sodipodi:nodetypes="ccccc" /><path
         fill="#ff7405"
         d="M 29.878952,59.742171 V 47.095684 l 10.851218,-4.905587 -0.150694,12.210368 -9.593147,5.140538 z"
         fill-opacity="1"
         fill-rule="nonzero"
         id="path256"
         style="display:inline;fill:#135281;fill-opacity:1"
         sodipodi:nodetypes="cccccc" /><path
         fill="#ff7405"
         d="m 40.986327,64.380853 10.650391,-5.085931 0.04055,-12.609907 -10.947094,-4.627501 -10.851218,5.03817 v 12.646487 c 0.0039,0.15625 11.107422,4.638682 11.107422,4.638682 z m 0.183593,-21.257819 9.726102,4.09813 0.01608,11.030776 -9.675782,-4.085938 z m -0.375001,11.890625 9.726563,4.125 -9.550781,4.515625 -9.984376,-4.113281 z m -10.289062,-7.53125 9.679687,-4.578125 0.234375,11.484375 -9.9375,4.59375 z"
         fill-opacity="1"
         fill-rule="nonzero"
         id="path257"
         style="display:inline;fill:#0a72bf;fill-opacity:1"
         sodipodi:nodetypes="ccccccccccccccccccccccc" /></g><g
       id="g140-8"
       inkscape:label="t yellow cube"
       transform="matrix(0.91108493,0,0,0.89046535,5.8438657,8.2236999)"
       style="display:inline"><path
         fill="#ffffff"
         d="m 40.794919,55.013659 0.134125,-12.442387 10.715074,4.09717 -0.0074,12.62648 -1.115236,-0.156263 z"
         fill-opacity="1"
         fill-rule="nonzero"
         id="path300-2"
         style="display:inline;fill:#b0842c;fill-opacity:1"
         sodipodi:nodetypes="cccccc" /><path
         fill="#ffffff"
         d="M 29.878952,59.742171 41.142575,54.37694 51.636718,59.294922 40.986327,64.380853 Z"
         fill-opacity="1"
         fill-rule="nonzero"
         id="path303-4"
         style="display:inline;fill:#b0842c;fill-opacity:1"
         sodipodi:nodetypes="ccccc" /><path
         fill="#ff7405"
         d="M 29.878952,59.742171 V 47.095684 l 10.768354,-4.92216 0.147613,12.840135 -9.808594,4.527344 z"
         fill-opacity="1"
         fill-rule="nonzero"
         id="path306-5"
         style="display:inline;fill:#b0842c;fill-opacity:1"
         sodipodi:nodetypes="cccccc" /><path
         fill="#ff7405"
         d="m 40.986327,64.380853 10.650391,-5.085931 0.0074,-12.62648 -10.963667,-4.6275 -10.801499,5.054742 v 12.646487 c 0.0039,0.15625 11.107422,4.638682 11.107422,4.638682 z m 0.224091,-21.326466 9.710219,4.175307 -0.03079,11.144633 -9.714126,-4.01396 z m -0.415499,11.959272 9.726563,4.125 -9.550781,4.515625 -9.984376,-4.113281 z m -10.289062,-7.53125 9.679687,-4.578125 0.234375,11.484375 -9.9375,4.59375 z"
         fill-opacity="1"
         fill-rule="nonzero"
         id="path309-5"
         style="display:inline;fill:#e5b048;fill-opacity:1"
         sodipodi:nodetypes="ccccccccccccccccccccccc" /></g><g
       id="g275"
       inkscape:label="t teal cube"
       transform="matrix(0.91108493,0,0,0.89046535,-4.1235219,-29.776779)"
       style="display:inline"><path
         fill="#ffffff"
         d="m 40.794919,55.013659 -0.263623,-13.005863 11.112822,4.660646 -0.0074,12.62648 -1.115236,-0.156263 z"
         fill-opacity="1"
         fill-rule="nonzero"
         id="path271"
         style="display:inline;fill:#14847e;fill-opacity:1"
         sodipodi:nodetypes="cccccc" /><path
         fill="#ffffff"
         d="M 29.878952,59.742171 41.142575,54.37694 51.636718,59.294922 40.986327,64.380853 Z"
         fill-opacity="1"
         fill-rule="nonzero"
         id="path272"
         style="display:inline;fill:#14847e;fill-opacity:1"
         sodipodi:nodetypes="ccccc" /><path
         fill="#ff7405"
         d="M 29.878952,59.742171 V 47.095684 l 10.652344,-5.087888 0.263623,13.005863 -9.808594,4.527344 z"
         fill-opacity="1"
         fill-rule="nonzero"
         id="path274"
         style="display:inline;fill:#14847e;fill-opacity:1"
         sodipodi:nodetypes="cccccc" /><path
         fill="#ff7405"
         d="m 40.986327,64.380853 10.650391,-5.085931 0.0074,-12.62648 -11.112822,-4.660646 -10.652344,5.087888 v 12.646487 c 0.0039,0.15625 11.107422,4.638682 11.107422,4.638682 z m -0.07422,-21.492194 10.12454,4.19188 -0.03079,11.476089 -9.863282,-4.179688 z m -0.117188,12.125 9.726563,4.125 -9.550781,4.515625 -9.984376,-4.113281 z m -10.289062,-7.53125 9.679687,-4.578125 0.234375,11.484375 -9.9375,4.59375 z"
         fill-opacity="1"
         fill-rule="nonzero"
         id="path275"
         style="display:inline;fill:#0ab0a6;fill-opacity:1"
         sodipodi:nodetypes="ccccccccccccccccccccccc" /></g></g><g
     clip-path="url(#f8f2e01b76)"
     id="g181"
     transform="matrix(0.35277777,0,0,0.35277777,-12.364993,-22.312564)"
     inkscape:label="wheels"
     style="display:inline"><path
       fill="#0a72bf"
       d="m 179.34375,159.96875 c 0,28.89844 -23.4375,52.41406 -52.25,52.41406 -28.816406,0 -52.253906,-23.51562 -52.253906,-52.41406 0,-28.89453 23.4375,-52.41016 52.253906,-52.41016 4.54297,0 8.94922,0.58985 13.15625,1.6836 l -4.61328,11.7539 c -2.75781,-0.60937 -5.61328,-0.9414 -8.55078,-0.9414 -21.90625,0 -39.722659,17.90625 -39.722659,39.91015 0,22 17.816409,39.90625 39.722659,39.90625 21.90625,0 39.72265,-17.90625 39.72265,-39.90625 0,-14.60547 -7.85156,-27.39453 -19.53515,-34.34765 l 4.60937,-11.76563 c 16.33985,8.87891 27.46094,26.21485 27.46094,46.11719 z m 52.79297,-34.71484 -4.39063,-11.83985 c -15.03515,7.81641 -25.82812,22.73438 -27.91406,40.3086 h 12.63281 c 1.91016,-12.20313 9.35938,-22.58204 19.67188,-28.46875 z m 19.55469,-17.69141 c -4.21485,0 -8.30079,0.51953 -12.22266,1.46484 l 4.38281,11.82032 c 2.53906,-0.50782 5.15235,-0.78125 7.83985,-0.78125 21.90234,0 39.71875,17.90625 39.71875,39.91015 0,22.00391 -17.81641,39.90625 -39.71875,39.90625 -19.78907,0 -36.23829,-14.60937 -39.23829,-33.66015 h -12.63281 c 3.08985,25.96093 25.16016,46.16015 51.86328,46.16015 28.8125,0 52.25,-23.51172 52.25,-52.41406 0,-28.90234 -23.42968,-52.40625 -52.24218,-52.40625 z m 0,0"
       fill-opacity="1"
       fill-rule="nonzero"
       id="path180" /></g><g
     clip-path="url(#c708f30429)"
     id="g184"
     transform="matrix(0.35277777,0,0,0.35277777,-12.364993,-22.312564)"
     inkscape:label="frame"><path
       fill="#0ab0a6"
       d="m 169.09961,69.132812 h 13.11914 c 3.46094,0 6.26172,2.792969 6.26172,6.246094 0,3.453125 -2.80078,6.25 -6.26172,6.25 h -17.6875 m -5.01172,12.773438 h 45.63672 c 3.46094,0.0078 6.26172,2.800781 6.26172,6.253906 0,3.45313 -2.80078,6.25 -6.26172,6.25 h -50.53906"
       fill-opacity="1"
       fill-rule="nonzero"
       id="path184"
       inkscape:label="path184"
       sodipodi:nodetypes="cssscccssc"
       style="display:inline" /><path
       fill="#dd5e05"
       d="m 87.315252,45.977539 c 0,1.218184 -0.988053,2.204861 -2.208995,2.204861 H 68.867455 c -1.220943,0 -2.208996,-0.986677 -2.208996,-2.204861 0,-1.218188 0.988053,-2.203482 2.208996,-2.203482 h 16.238802 c 1.218184,0 2.208995,0.985294 2.208995,2.203482 z m 0,0"
       fill-opacity="1"
       fill-rule="nonzero"
       id="path181"
       style="stroke-width:0.352778"
       transform="matrix(2.8346458,0,0,2.8346458,-7.9843668,29.638716)" /><path
       fill="#ff7405"
       d="m 92.374029,48.045973 c -0.254938,0.09233 -0.512628,0.137806 -0.766188,0.137806 -0.897103,0 -1.743219,-0.549839 -2.072569,-1.438674 L 84.709382,33.73367 83.160465,29.555458 81.775537,25.820974 c -0.424434,-1.142393 0.159854,-2.410188 1.305003,-2.833246 1.143772,-0.42168 2.414322,0.16123 2.83876,1.303624 l 1.379414,3.716569 1.546158,4.171322 4.836915,13.036239 c 0.420303,1.139638 -0.163985,2.407433 -1.307758,2.830491 z m 0,0"
       fill-opacity="1"
       fill-rule="nonzero"
       id="path182"
       style="stroke-width:0.352778"
       transform="matrix(2.8346458,0,0,2.8346458,-7.9843668,29.638716)" /><path
       fill="#e5b048"
       d="m 94.405256,18.772309 c 0,1.218186 -0.989428,2.204861 -2.208995,2.204861 H 81.418625 c -1.22094,0 -2.208996,-0.986675 -2.208996,-2.204861 0,-1.218185 0.988056,-2.204861 2.208996,-2.204861 h 10.777636 c 1.219567,-0.0014 2.208995,0.986676 2.208995,2.204861 z m 0,0"
       fill-opacity="1"
       fill-rule="nonzero"
       id="path183"
       style="stroke-width:0.352778"
       transform="matrix(2.8346458,0,0,2.8346458,-7.9843668,29.638716)" /></g><g
     id="g9"
     inkscape:label="pen"
     style="display:inline"
     transform="translate(-49.312951,-110.0171)"><path
       fill="#e5b048"
       d="m 168.92969,67.546875 c 0.25,1.71875 0.0898,3.460937 -0.34766,5.148437 -0.34766,1.355469 -0.77734,2.6875 -1.17187,4.027344 l -13.21094,33.984374 c -0.74219,1.84766 -1.48828,3.69922 -2.23047,5.54688 -0.23438,0.57812 -0.47266,1.16015 -0.70313,1.74218 -1.92578,4.8711 -3.85937,9.73829 -5.77343,14.61328 -1.01172,2.58594 -1.98047,5.19141 -2.98438,7.78125 -1.91015,4.92579 -3.83203,9.84375 -5.73437,14.77344 -0.5,1.29297 -0.91797,2.61719 -1.42188,3.90625 -0.125,0.31641 -0.44531,0.55469 -0.67969,0.82422 -0.33593,0.64453 -0.67578,1.28906 -1.01171,1.93359 -0.46485,0.78516 -0.86329,1.61719 -1.40235,2.35157 -0.72656,0.99218 -1.48437,1.98437 -2.36719,2.83203 -1.23437,1.1875 -2.55859,2.28906 -3.91406,3.32812 -0.70703,0.54297 -1.53906,0.95703 -2.48047,1.02735 -0.53515,-0.26172 -1.07031,-0.52735 -1.60546,-0.79297 -0.26954,-0.88672 -0.64063,-1.75781 -0.79297,-2.66406 -0.28907,-1.7461 -0.54297,-3.50391 -0.65235,-5.26563 -0.12109,-2.01953 -0.12109,-4.05078 0.37891,-6.03516 0.0352,-0.14062 0.15234,-0.26171 0.23047,-0.39062 0.22656,-0.52344 0.45312,-1.04297 0.67969,-1.5625 0.0742,-0.26172 0.11718,-0.53906 0.22265,-0.78906 2.08203,-5.09375 4.19531,-10.17578 6.25,-15.27735 1.78516,-4.42968 3.51172,-8.88281 5.26172,-13.32812 0.74219,-1.875 1.47266,-3.75391 2.21094,-5.63281 1.57422,-4.01172 3.15625,-8.01563 4.71875,-12.03125 0.83593,-2.15235 1.64843,-4.31641 2.4375,-6.48828 0.13672,-0.375 12.86328,-33.058599 13.97656,-34.417974 0.94531,-1.160156 2.08203,-2.207031 3.48828,-2.878906 1.47656,-0.707031 2.98438,-0.648438 4.54688,-0.371094 1.23046,0.21875 2.37109,0.609375 3.0664,1.664063 0.48047,0.722656 0.89063,1.589843 1.01563,2.441406 z m 0,0"
       fill-opacity="1"
       fill-rule="nonzero"
       id="path185"
       style="display:inline"
       transform="matrix(0.35277777,0,0,0.35277777,36.947957,87.704536)" /><path
       fill="#ff7405"
       d="m 168.92969,67.546875 c 0.25,1.71875 0.0898,3.460937 -0.34766,5.148437 -0.34766,1.355469 -0.77734,2.6875 -1.17187,4.027344 l -10.76172,27.683594 c -1.23828,-0.42969 -4.91797,-1.55469 -6.14844,-2.00781 -1.58594,-0.58594 -3.14844,-1.22266 -4.73047,-1.8086 -0.75391,-0.28125 -1.53125,-0.5 -2.30469,-0.726559 -0.14062,-0.03906 -0.3125,0.01563 -0.46875,0.02734 -0.46875,-0.171875 -0.52734,-0.441406 -0.34375,-0.914063 1.60157,-4.121093 3.02735,-8.304687 4.70703,-12.394531 2.73829,-6.667969 4.82032,-14.222656 9.45313,-19.890625 0.94531,-1.160156 2.08203,-2.207031 3.48828,-2.878906 1.47656,-0.707031 2.98438,-0.648438 4.54688,-0.371094 1.23046,0.21875 2.37109,0.613282 3.0664,1.664063 0.48047,0.722656 0.89063,1.589843 1.01563,2.441406 z m 0,0"
       fill-opacity="1"
       fill-rule="nonzero"
       id="path187"
       style="display:inline"
       transform="matrix(0.35277777,0,0,0.35277777,36.947957,87.704536)" /><path
       fill="#737373"
       d="m 154.22266,103.67969 c 0.95312,-2.58203 1.91015,-5.167971 2.86718,-7.750002 0.28516,-0.761719 0.58203,-1.519532 0.8711,-2.277344 1.36328,-3.605469 2.73047,-7.207032 4.08984,-10.8125 0.74609,-1.972656 1.49219,-3.945313 2.21875,-5.929688 0.21875,-0.589844 0.61328,-0.773437 1.19141,-0.644531 0.64843,0.144531 1.30078,0.304687 1.94922,0.457031 0.34375,0.136719 0.6914,0.261719 1.02734,0.40625 0.54687,0.238282 0.77344,0.667969 0.58203,1.226563 -0.24609,0.71875 -0.55859,1.414062 -0.83984,2.121093 -2.32422,5.835938 -4.66797,11.667969 -6.96875,17.515626 -0.78907,2.003906 -1.48438,4.046872 -2.19141,6.082032 -0.60547,1.75 -1.17969,3.50781 -1.75,5.26953 -0.4375,1.35547 -1.43359,1.6875 -2.67578,1.37109 -0.12109,-0.0312 -0.26172,-0.004 -0.39453,-0.008 -0.75,-0.33594 -1.5,-0.67187 -2.33985,-1.04687 0.82032,-2.07422 1.58985,-4.02735 2.36329,-5.98047 z m -19.55079,56.21484 c -1.21875,-0.49609 -2.43359,-0.99609 -3.65234,-1.48828 -3.09375,-1.25 -6.1914,-2.5 -9.28515,-3.75 -0.22657,0.51953 -0.45313,1.03906 -0.67969,1.5625 0.36719,0.1875 0.72265,0.39844 1.09765,0.56641 3.54297,1.54296 7.08985,3.08203 10.63282,4.625 0.29687,0.1289 0.58203,0.27734 0.875,0.41796 0.33593,-0.64453 0.67578,-1.28906 1.01171,-1.93359 z m -13.11328,11.05469 c -0.32031,0.83594 -0.61718,1.67969 -0.91796,2.52344 -0.21485,0.61328 0.082,1.03906 0.58984,1.29687 0.52734,0.27344 1.09375,0.0977 1.30078,-0.40625 0.39844,-0.96484 0.65234,-1.99219 0.96484,-2.99609 -0.53515,-0.26172 -1.07031,-0.52735 -1.60546,-0.79297 -0.11329,0.125 -0.27735,0.23047 -0.33204,0.375 z m 0,0"
       fill-opacity="1"
       fill-rule="nonzero"
       id="path190"
       style="display:inline"
       transform="matrix(0.35277777,0,0,0.35277777,36.947957,87.704536)" /></g><g
     id="g399"
     inkscape:label="chaos cubes"
     transform="translate(-49.312951,-110.0171)"><g
       id="g8"
       inkscape:label="big blue chaos"
       transform="matrix(0.35277777,0,0,0.35277777,39.593792,87.704536)"
       style="display:inline"><path
         fill="#ffffff"
         d="m 310.74219,107.62891 -8.3125,16.95703 -11.3086,-13.60156 8.3125,-16.960942 z m 0,0"
         fill-opacity="1"
         fill-rule="nonzero"
         id="path204"
         style="display:inline"
         transform="translate(-1.2992127e-6)" /><path
         fill="#ffffff"
         d="m 328.4375,108.20313 -0.0156,0.0352 -17.67968,-0.60937 -11.3086,-13.605472 0.0156,-0.03516 17.67969,0.609375 z m 0,0"
         fill-opacity="1"
         fill-rule="nonzero"
         id="path207"
         style="display:inline"
         transform="translate(-1.2992127e-6)" /><path
         fill="#0a72bf"
         d="m 328.42187,108.23828 -8.3125,16.95703 -17.67968,-0.60937 8.3125,-16.95703 z m 0,0"
         fill-opacity="1"
         fill-rule="nonzero"
         id="path210"
         style="display:inline"
         transform="translate(-1.2992127e-6)" /><path
         fill="#0a72bf"
         d="M 328.85156,107.80859 317.54297,94.207031 c -0.10547,-0.128906 -0.24219,-0.195312 -0.40625,-0.199219 l -17.67969,-0.609374 c -0.24219,-0.0078 -0.41406,0.09375 -0.51953,0.308593 l -8.33203,16.996099 c -0.10547,0.21484 -0.082,0.41406 0.0703,0.59765 l 11.30859,13.60547 c 0.10547,0.12891 0.24219,0.19531 0.41016,0.19922 l 17.67969,0.60937 c 0.23828,0.008 0.41406,-0.0937 0.51953,-0.30859 l 8.33203,-16.99609 c 0.10547,-0.21485 0.082,-0.41407 -0.0742,-0.60157 z m -26.55859,15.72657 -10.53125,-12.66797 7.78125,-15.863284 10.52734,12.667974 z m 8.70312,-16.49219 -10.38281,-12.492189 16.23438,0.558594 10.38671,12.492185 z m 8.75391,17.54687 -16.45703,-0.5664 7.77734,-15.86328 16.46094,0.5664 z m 0,0"
         fill-opacity="1"
         fill-rule="nonzero"
         id="path213"
         style="display:inline"
         transform="translate(-1.2992127e-6)" /></g><g
       id="g7"
       inkscape:label="big orange cube"
       transform="matrix(0.35277777,0,0,0.35277777,39.593792,87.704536)"
       style="display:inline"><path
         fill="#ffffff"
         d="m 345.47266,127.24609 10.15234,15.92969 -17.5,2.57422 -10.15234,-15.92969 z m 0,0"
         fill-opacity="1"
         fill-rule="nonzero"
         id="path216"
         style="display:inline"
         transform="translate(-1.2992127e-6)" /><path
         fill="#ffffff"
         d="m 355.17578,112.4375 0.0234,0.0312 -9.72656,14.77734 -17.5,2.57422 -0.0195,-0.0312 9.72266,-14.77734 z m 0,0"
         fill-opacity="1"
         fill-rule="nonzero"
         id="path219"
         style="display:inline"
         transform="translate(-1.2992127e-6)" /><path
         fill="#dd5e05"
         d="m 355.19922,112.46875 10.15234,15.92969 -9.72656,14.77734 -10.15234,-15.92969 z m 0,0"
         fill-opacity="1"
         fill-rule="nonzero"
         id="path222"
         style="display:inline"
         transform="translate(-1.2992127e-6)" /><path
         fill="#dd5e05"
         d="m 355.05859,111.87891 -17.5039,2.57422 c -0.16407,0.0234 -0.29297,0.10546 -0.38282,0.24609 l -9.72265,14.77734 c -0.13281,0.20313 -0.13281,0.40235 -0.004,0.60547 l 10.17188,15.96094 c 0.1289,0.20312 0.3125,0.28515 0.55078,0.25 l 17.5,-2.57422 c 0.16406,-0.0234 0.29297,-0.10547 0.38281,-0.24219 l 9.72656,-14.78125 c 0.12891,-0.19922 0.13282,-0.40234 0.004,-0.60547 l -10.17188,-15.95703 c -0.1289,-0.20312 -0.3125,-0.28906 -0.55078,-0.2539 z m -0.40234,30.86328 -16.29297,2.39843 -9.49609,-14.89843 16.29297,-2.39844 z m -9.54688,-16.01563 -16.07421,2.36328 8.92968,-13.57031 16.07422,-2.36328 z m 19.53907,1.66016 -9.05469,13.75781 -9.49609,-14.89844 9.05468,-13.75781 z m 0,0"
         fill-opacity="1"
         fill-rule="nonzero"
         id="path225"
         style="display:inline"
         transform="translate(-1.2992127e-6)" /></g><g
       id="g6"
       inkscape:label="big teal chaos cube"
       transform="matrix(0.35277777,0,0,0.35277777,39.593792,87.704536)"
       style="display:inline"><path
         fill="#ffffff"
         d="m 314.59375,163.85156 0.0234,-0.0352 17.50781,2.52343 9.76953,14.7461 -0.0195,0.0312 -17.51172,-2.51953 z m 0,0"
         fill-opacity="1"
         fill-rule="nonzero"
         id="path231"
         style="display:inline"
         transform="translate(-1.2992127e-6)" /><path
         fill="#ffffff"
         d="m 332.125,166.33984 10.10156,-15.96093 9.76953,14.75 -10.10156,15.95703 z m 0,0"
         fill-opacity="1"
         fill-rule="nonzero"
         id="path228"
         style="display:inline"
         transform="translate(-1.2992127e-6)" /><path
         fill="#0ab0a6"
         d="m 314.61719,163.81641 10.10156,-15.95704 17.50781,2.51954 -10.10156,15.96093 z m 0,0"
         fill-opacity="1"
         fill-rule="nonzero"
         id="path234"
         style="display:inline"
         transform="translate(-1.2992127e-6)" /><path
         fill="#0ab0a6"
         d="m 314.14062,164.19531 9.76954,14.75 c 0.0937,0.13672 0.21875,0.21875 0.38671,0.24219 l 17.50782,2.51953 c 0.23828,0.0352 0.42187,-0.0508 0.55078,-0.25391 l 10.12109,-15.98828 c 0.12891,-0.20312 0.12891,-0.40625 -0.004,-0.60547 l -9.76954,-14.75 c -0.0937,-0.13671 -0.21875,-0.21875 -0.38281,-0.24218 l -17.51172,-2.51953 c -0.23828,-0.0352 -0.42187,0.0469 -0.55078,0.25 l -10.12109,15.99218 c -0.12891,0.20313 -0.12891,0.40625 0.004,0.60547 z m 28.10938,-12.7539 9.09375,13.73046 -9.44922,14.92969 -9.09375,-13.73047 z m -10.44141,15.44921 8.97266,13.54688 -16.08203,-2.31641 -8.96875,-13.54297 z M 325.00781,148.5 l 16.30078,2.34766 -9.44922,14.92578 -16.30468,-2.34766 z m 0,0"
         fill-opacity="1"
         fill-rule="nonzero"
         id="path237"
         style="display:inline"
         transform="translate(-1.2992127e-6)" /></g><g
       id="g5"
       inkscape:label="small orange chaos cube"
       transform="matrix(0.35277777,0,0,0.35277777,39.593792,87.704536)"
       style="display:inline"><path
         fill="#ffffff"
         d="m 314.86719,192.4375 -0.77344,14.86328 -12.40625,-6.35547 0.76953,-14.86328 z m 0,0"
         fill-opacity="1"
         fill-rule="nonzero"
         id="path240"
         style="display:inline"
         transform="translate(-1.2992127e-6)" /><path
         fill="#ffffff"
         d="m 327.86719,187.37109 v 0.0273 l -13,5.03906 -12.41016,-6.35547 0.004,-0.0312 13,-5.03516 z m 0,0"
         fill-opacity="1"
         fill-rule="nonzero"
         id="path243"
         style="display:inline"
         transform="translate(-1.2992127e-6)" /><path
         fill="#ff7405"
         d="m 327.86719,187.39844 -0.77344,14.86718 -13,5.03516 0.77344,-14.86328 z m 0,0"
         fill-opacity="1"
         fill-rule="nonzero"
         id="path246"
         style="display:inline"
         transform="translate(-1.2992127e-6)" /><path
         fill="#ff7405"
         d="m 328.04687,186.95703 -12.41015,-6.35156 c -0.11719,-0.0625 -0.23438,-0.0664 -0.35938,-0.0195 l -13,5.03515 c -0.17578,0.0703 -0.26953,0.19532 -0.27734,0.38672 l -0.77344,14.89453 c -0.0117,0.1875 0.0703,0.32813 0.23828,0.41407 L 313.875,207.668 c 0.11328,0.0625 0.23437,0.0664 0.35547,0.0195 l 13,-5.03516 c 0.17969,-0.0703 0.26953,-0.19531 0.28125,-0.38672 l 0.77344,-14.89453 c 0.008,-0.1875 -0.0703,-0.32812 -0.23829,-0.41406 z m -14.375,19.625 -11.55468,-5.91797 0.72265,-13.90625 11.55078,5.91797 z m 1.19922,-14.64844 -11.39843,-5.83593 11.9414,-4.625 11.39453,5.83593 z m 11.77735,10.00391 -12.10157,4.6875 0.72266,-13.90234 12.10156,-4.69141 z m 0,0"
         fill-opacity="1"
         fill-rule="nonzero"
         id="path249"
         style="display:inline"
         transform="translate(-1.2992127e-6)" /></g></g><g
     transform="matrix(0.35277777,0,0,0.35277777,0.33500641,18.60966)"
     id="g328"
     style="display:inline;fill:#0ab0a6;fill-opacity:1"
     inkscape:label="side"><path
       d="m 0.359375,-8.34375 c 0,1.699219 -0.296875,3.183594 -0.890625,4.453125 -0.601562,1.273437 -1.640625,2.308594 -3.109375,3.109375 l -1.40625,-2.109375 c 1.074219,-0.632813 1.824219,-1.445313 2.25,-2.4375 0.429687,-1 0.640625,-2.007813 0.640625,-3.03125 0,-0.707031 -0.085938,-1.40625 -0.265625,-2.09375 -0.175781,-0.6875 -0.476563,-1.25 -0.90625,-1.6875 -0.425781,-0.445313 -1.007813,-0.671875 -1.75,-0.671875 -0.601563,0 -1.09375,0.203125 -1.46875,0.609375 -0.375,0.398437 -0.664063,0.933594 -0.875,1.609375 -0.207031,0.679688 -0.375,1.4375 -0.5,2.28125 -0.125,0.867188 -0.28125,1.703125 -0.46875,2.515625 -0.195313,0.8125 -0.476563,1.542969 -0.84375,2.1875 -0.375,0.648437 -0.867187,1.164063 -1.484375,1.546875 -0.613281,0.375 -1.390625,0.5625 -2.328125,0.5625 -0.832031,0 -1.550781,-0.203125 -2.15625,-0.609375 -0.613281,-0.40625 -1.117187,-0.929687 -1.515625,-1.578125 -0.394531,-0.65625 -0.6875,-1.382812 -0.875,-2.1875 -0.195312,-0.800781 -0.296875,-1.609375 -0.296875,-2.421875 0,-0.851563 0.08594,-1.6875 0.25,-2.5 0.167969,-0.8125 0.464844,-1.566406 0.890625,-2.265625 0.429688,-0.707031 1.039062,-1.300781 1.828125,-1.78125 l 1.4375,2.125 c -0.625,0.429688 -1.113281,1.03125 -1.46875,1.8125 -0.351563,0.773438 -0.53125,1.621094 -0.53125,2.546875 0,1.167969 0.230469,2.136719 0.6875,2.90625 0.449219,0.773437 1.054687,1.15625 1.8125,1.15625 0.5625,0 1.011719,-0.195313 1.34375,-0.59375 0.324219,-0.394531 0.570313,-0.910156 0.734375,-1.546875 0.167969,-0.644531 0.308594,-1.351562 0.421875,-2.125 0.136719,-0.90625 0.3125,-1.78125 0.53125,-2.625 0.21875,-0.851562 0.527344,-1.609375 0.921875,-2.265625 0.398438,-0.664063 0.914062,-1.191406 1.546875,-1.578125 0.636719,-0.394531 1.4375,-0.59375 2.40625,-0.59375 0.992187,0 1.828125,0.210938 2.515625,0.625 0.6875,0.40625 1.246094,0.960938 1.671875,1.65625 0.429687,0.6875 0.742187,1.464844 0.9375,2.328125 0.207031,0.867187 0.3125,1.757813 0.3125,2.671875 z m 0,0"
       id="path314"
       style="display:inline;fill:#0ab0a6;fill-opacity:1"
       transform="translate(22.425832,86.498616)" /><path
       d="M 0,-2.21875 H -17.59375 V -5 H 0 Z m 0,0"
       id="path317"
       style="display:inline;fill:#0ab0a6;fill-opacity:1"
       transform="translate(22.425832,63.486028)" /><path
       d="M 0,-2.21875 H -17.59375 V -8.875 c 0,-1.519531 0.25,-2.832031 0.75,-3.9375 0.492188,-1.101562 1.164062,-2.015625 2.015625,-2.734375 0.84375,-0.71875 1.792969,-1.253906 2.84375,-1.609375 1.042969,-0.351562 2.117187,-0.53125 3.21875,-0.53125 1.105469,0 2.179687,0.171875 3.21875,0.515625 1.03125,0.34375 1.96875,0.875 2.8125,1.59375 0.835937,0.71875 1.5,1.636719 2,2.75 C -0.242188,-11.710938 0,-10.394531 0,-8.875 Z M -2.71875,-5 v -3.875 c 0,-1.40625 -0.296875,-2.550781 -0.890625,-3.4375 -0.59375,-0.882812 -1.351563,-1.535156 -2.28125,-1.953125 -0.925781,-0.425781 -1.894531,-0.640625 -2.90625,-0.640625 -0.75,0 -1.484375,0.121094 -2.203125,0.359375 -0.71875,0.230469 -1.367188,0.589844 -1.953125,1.078125 -0.59375,0.492188 -1.066406,1.117188 -1.421875,1.875 -0.351562,0.761719 -0.53125,1.667969 -0.53125,2.71875 V -5 Z m 0,0"
       id="path320"
       style="display:inline;fill:#0ab0a6;fill-opacity:1"
       transform="translate(22.425832,49.843475)" /><path
       d="M 0,-2.21875 H -17.59375 V -15.125 h 2.75 v 10.09375 h 4.75 v -9.6875 h 2.609375 v 9.6875 h 4.71875 V -15.203125 H 0 Z m 0,0"
       id="path323"
       style="display:inline;fill:#0ab0a6;fill-opacity:1"
       transform="translate(22.425832,24.569997)" /></g><g
     transform="matrix(0.35277777,0,0,0.35277777,1.6550124,2.8202599)"
     id="g204"
     inkscape:label="festival"
     style="fill:#737373;fill-opacity:1"><path
       d="m 6.203125,0 v -15.046875 h -5.78125 v -2.546875 h 14.375 v 2.546875 h -5.75 V 0 Z m 0,0"
       id="path193"
       transform="translate(1.119764,22.813849)"
       style="fill:#737373;fill-opacity:1" /><path
       d="M 2.21875,0 V -17.59375 H 8.875 c 1.519531,0 2.832031,0.25 3.9375,0.75 1.101562,0.492188 2.015625,1.164062 2.734375,2.015625 0.71875,0.84375 1.253906,1.792969 1.609375,2.84375 0.351562,1.042969 0.53125,2.117187 0.53125,3.21875 0,1.105469 -0.171875,2.179687 -0.515625,3.21875 -0.34375,1.03125 -0.875,1.96875 -1.59375,2.8125 -0.71875,0.835937 -1.636719,1.5 -2.75,2 C 11.710938,-0.242188 10.394531,0 8.875,0 Z M 5,-2.71875 h 3.875 c 1.40625,0 2.550781,-0.296875 3.4375,-0.890625 0.882812,-0.59375 1.535156,-1.351563 1.953125,-2.28125 0.425781,-0.925781 0.640625,-1.894531 0.640625,-2.90625 0,-0.75 -0.121094,-1.484375 -0.359375,-2.203125 -0.230469,-0.71875 -0.589844,-1.367188 -1.078125,-1.953125 -0.492188,-0.59375 -1.117188,-1.066406 -1.875,-1.421875 -0.761719,-0.351562 -1.667969,-0.53125 -2.71875,-0.53125 H 5 Z m 0,0"
       id="path196"
       transform="translate(22.775834,22.813849)"
       style="fill:#737373;fill-opacity:1" /><path
       d="M 9.421875,0.359375 C 8.066406,0.359375 6.820312,0.0703125 5.6875,-0.5 4.5625,-1.082031 3.660156,-1.941406 2.984375,-3.078125 c -0.667969,-1.132813 -1,-2.53125 -1,-4.1875 V -17.59375 H 4.78125 v 10.328125 c 0,1.625 0.445312,2.871094 1.34375,3.734375 0.894531,0.867188 2.023438,1.296875 3.390625,1.296875 1.34375,0 2.445313,-0.429687 3.3125,-1.296875 C 13.691406,-4.394531 14.125,-5.640625 14.125,-7.265625 V -17.59375 h 2.78125 v 10.328125 c 0,1.730469 -0.339844,3.15625 -1.015625,4.28125 -0.679687,1.117187 -1.589844,1.953125 -2.734375,2.515625 -1.136719,0.5507812 -2.382812,0.828125 -3.734375,0.828125 z m 0,0"
       id="path199"
       transform="translate(48.049313,22.813849)"
       style="fill:#737373;fill-opacity:1" /></g></svg>
