<?xml version="1.0" encoding="UTF-8" standalone="no"?>
<!-- Created with Inkscape (http://www.inkscape.org/) -->

<svg
   width="110.06374mm"
   height="27.193392mm"
   viewBox="0 0 110.06373 27.193392"
   version="1.1"
   id="svg1"
   xml:space="preserve"
   inkscape:export-filename="sidequester.svg"
   inkscape:export-xdpi="96"
   inkscape:export-ydpi="96"
   sodipodi:docname="sidequester_navheader.svg"
   inkscape:version="1.4.3 (0d15f75, 2025-12-25)"
   xmlns:inkscape="http://www.inkscape.org/namespaces/inkscape"
   xmlns:sodipodi="http://sodipodi.sourceforge.net/DTD/sodipodi-0.dtd"
   xmlns="http://www.w3.org/2000/svg"
   xmlns:svg="http://www.w3.org/2000/svg"><sodipodi:namedview
     id="namedview1"
     pagecolor="#000000"
     bordercolor="#000000"
     borderopacity="0.25"
     inkscape:showpageshadow="2"
     inkscape:pageopacity="0.0"
     inkscape:pagecheckerboard="false"
     inkscape:deskcolor="#d1d1d1"
     inkscape:document-units="mm"
     inkscape:zoom="2.8284271"
     inkscape:cx="257.38687"
     inkscape:cy="57.098873"
     inkscape:window-width="2880"
     inkscape:window-height="1694"
     inkscape:window-x="3445"
     inkscape:window-y="-11"
     inkscape:window-maximized="1"
     inkscape:current-layer="g180"
     inkscape:clip-to-page="true"><inkscape:page
       x="0"
       y="0"
       width="110.06373"
       height="27.193392"
       id="page2"
       margin="0"
       bleed="0" /></sodipodi:namedview><defs
     id="defs1"><clipPath
       id="f8f2e01b76"><path
         d="M 74.457031,107 H 303.95703 V 212.38281 H 74.457031 Z m 0,0"
         clip-rule="nonzero"
         id="path13" /></clipPath><clipPath
       id="c708f30429"><path
         d="M 120,69.132812 H 303.95703 V 190 H 120 Z m 0,0"
         clip-rule="nonzero"
         id="path14" /></clipPath></defs><g
     transform="matrix(0.35277777,0,0,0.35277777,7.8401131,7.9190088)"
     id="g180"
     style="display:inline;fill:#ff7405;fill-opacity:1"
     inkscape:label="quester"><path
       d="m 40.421875,2.203125 -5,-4.875 C 32.210938,-0.390625 28.195312,0.75 23.375,0.75 c -3.605469,0 -6.714844,-0.589844 -9.328125,-1.765625 -2.605469,-1.175781 -4.757813,-2.757813 -6.453125,-4.75 -1.699219,-1.988281 -2.964844,-4.238281 -3.796875,-6.75 -0.835937,-2.519531 -1.25,-5.113281 -1.25,-7.78125 0,-2.664063 0.425781,-5.242187 1.28125,-7.734375 0.851563,-2.5 2.140625,-4.742188 3.859375,-6.734375 1.71875,-1.988281 3.878906,-3.570313 6.484375,-4.75 2.613281,-1.175781 5.679687,-1.765625 9.203125,-1.765625 3.550781,0 6.628906,0.589844 9.234375,1.765625 2.613281,1.179687 4.769531,2.761719 6.46875,4.75 1.695313,1.992187 2.953125,4.246094 3.765625,6.765625 0.8125,2.511719 1.21875,5.078125 1.21875,7.703125 0,2.367187 -0.328125,4.679687 -0.984375,6.9375 -0.65625,2.261719 -1.664063,4.320313 -3.015625,6.171875 l 4.875,4.8125 z M 23.375,-5.28125 c 2.394531,0 4.488281,-0.421875 6.28125,-1.265625 C 31.457031,-7.398438 32.945312,-8.550781 34.125,-10 c 1.175781,-1.445312 2.050781,-3.066406 2.625,-4.859375 0.582031,-1.800781 0.875,-3.632813 0.875,-5.5 0,-1.851563 -0.273438,-3.664063 -0.8125,-5.4375 -0.53125,-1.78125 -1.371094,-3.382813 -2.515625,-4.8125 -1.136719,-1.4375 -2.605469,-2.585937 -4.40625,-3.453125 -1.804687,-0.875 -3.976563,-1.3125 -6.515625,-1.3125 -2.4375,0 -4.558594,0.429688 -6.359375,1.28125 -1.792969,0.855469 -3.289063,2.007812 -4.484375,3.453125 -1.199219,1.449219 -2.089844,3.085937 -2.671875,4.90625 -0.585937,1.8125 -0.875,3.667969 -0.875,5.5625 0,1.855469 0.296875,3.671875 0.890625,5.453125 0.601562,1.773438 1.503906,3.367188 2.703125,4.78125 1.195313,1.40625 2.691406,2.539062 4.484375,3.390625 1.800781,0.84375 3.90625,1.265625 6.3125,1.265625 z m 0,0"
       id="path145"
       style="display:inline;fill:#ff7405;fill-opacity:1"
       transform="translate(0.50349745,52.432924)" /><path
       d="m 70.482267,53.245424 c -3.136719,0 -6.011719,-0.667969 -8.625,-2 -2.605469,-1.332031 -4.683594,-3.300781 -6.234375,-5.90625 -1.542969,-2.613281 -2.3125,-5.832031 -2.3125,-9.65625 v -23.84375 h 6.4375 v 23.84375 c 0,3.742188 1.03125,6.609375 3.09375,8.609375 2.070313,1.992187 4.691406,2.984375 7.859375,2.984375 3.09375,0 5.632812,-0.992188 7.625,-2.984375 2,-2 3,-4.867187 3,-8.609375 v -23.84375 h 6.4375 v 23.84375 c 0,3.980469 -0.789062,7.265625 -2.359375,9.859375 -1.5625,2.585937 -3.664063,4.515625 -6.296875,5.796875 -2.625,1.269531 -5.5,1.90625 -8.625,1.90625 z m 0,0"
       id="path148"
       style="display:inline;fill:#ff7405;fill-opacity:1" /><path
       d="m 95.632913,52.432924 v -40.59375 h 29.796877 v 6.328125 h -23.3125 v 10.953125 h 22.39062 v 6.03125 h -22.39062 v 10.90625 h 23.48437 v 6.375 z m 0,0"
       id="path151"
       style="display:inline;fill:#ff7405;fill-opacity:1" /><path
       d="m 150.92418,53.245424 c -3.90625,0 -7.32812,-0.6875 -10.26562,-2.0625 -2.9375,-1.375 -5.33594,-3.757812 -7.1875,-7.15625 l 4.875,-3.25 c 1.46875,2.480469 3.34765,4.214844 5.64062,5.203125 2.30078,0.980469 4.63281,1.46875 7,1.46875 1.625,0 3.22656,-0.203125 4.8125,-0.609375 1.58203,-0.40625 2.88281,-1.097656 3.90625,-2.078125 1.03125,-0.988281 1.54688,-2.335937 1.54688,-4.046875 0,-1.382812 -0.46875,-2.507812 -1.40625,-3.375 -0.92969,-0.875 -2.17188,-1.550781 -3.73438,-2.03125 -1.5625,-0.488281 -3.3125,-0.867188 -5.25,-1.140625 -2.01172,-0.3125 -3.95312,-0.6875 -5.82812,-1.125 -1.875,-0.445313 -3.5586,-1.09375 -5.04688,-1.9375 -1.48047,-0.851563 -2.65625,-1.984375 -3.53125,-3.390625 -0.86719,-1.414062 -1.29687,-3.207031 -1.29687,-5.375 0,-1.9375 0.46093,-3.609375 1.39062,-5.015625 0.92578,-1.40625 2.14063,-2.5625 3.64063,-3.46875 1.50781,-0.914063 3.1914,-1.59375 5.04687,-2.03125 1.86328,-0.445313 3.72266,-0.671875 5.57813,-0.671875 1.96875,0 3.89062,0.195312 5.76562,0.578125 1.875,0.386719 3.625,1.074219 5.25,2.0625 1.625,0.980469 2.99219,2.382813 4.10938,4.203125 l -4.92188,3.296875 c -0.96875,-1.425781 -2.35547,-2.546875 -4.15625,-3.359375 -1.79297,-0.8125 -3.75,-1.21875 -5.875,-1.21875 -2.71094,0 -4.95312,0.523438 -6.73437,1.5625 -1.77344,1.042969 -2.65625,2.433594 -2.65625,4.171875 0,1.324219 0.45312,2.359375 1.35937,3.109375 0.90625,0.75 2.10156,1.324219 3.59375,1.71875 1.48828,0.386719 3.11719,0.714844 4.89063,0.984375 2.09375,0.304687 4.11328,0.710937 6.0625,1.21875 1.95703,0.5 3.69531,1.203125 5.21875,2.109375 1.53125,0.90625 2.75,2.09375 3.65625,3.5625 0.90625,1.46875 1.35937,3.324219 1.35937,5.5625 0,2.28125 -0.47656,4.21875 -1.42187,5.8125 -0.94922,1.585938 -2.22657,2.871094 -3.82813,3.859375 -1.60547,0.980469 -3.40234,1.699219 -5.39062,2.15625 -1.99219,0.46875 -4.04688,0.703125 -6.17188,0.703125 z m 0,0"
       id="path154"
       style="display:inline;fill:#ff7405;fill-opacity:1" /><path
       d="m 216.91397,52.432924 v -40.59375 h 29.79688 v 6.328125 h -23.3125 v 10.953125 h 22.39062 v 6.03125 h -22.39062 v 10.90625 h 23.48437 v 6.375 z m 0,0"
       id="path172"
       style="display:inline;fill:#ff7405;fill-opacity:1" /><path
       d="m 254.75212,52.432924 v -40.59375 h 18.89063 c 3.13281,0 5.76562,0.632812 7.89062,1.890625 2.125,1.261719 3.72657,2.90625 4.8125,4.9375 1.08204,2.023437 1.625,4.171875 1.625,6.453125 0,1.898438 -0.35937,3.746094 -1.07812,5.546875 -0.71094,1.792969 -1.875,3.328125 -3.5,4.609375 -1.625,1.273438 -3.77344,2.101562 -6.4375,2.484375 l 12.10937,13.515625 0.70313,1.15625 H 282.174 l -12.35938,-14.03125 h -8.57812 v 14.03125 z m 6.48438,-19.953125 h 12.35937 c 2.66407,0 4.625,-0.722656 5.875,-2.171875 1.25782,-1.445312 1.89063,-3.132812 1.89063,-5.0625 0,-1.238281 -0.27344,-2.414062 -0.8125,-3.53125 -0.54297,-1.125 -1.38672,-2.050781 -2.53125,-2.78125 -1.13672,-0.738281 -2.59375,-1.109375 -4.375,-1.109375 H 261.2365 Z m 0,0"
       id="path175"
       style="display:inline;fill:#ff7405;fill-opacity:1" /><path
       d="M 189.05417,52.849562 V 17.848172 H 175.60608 V 11.92374 h 33.4385 v 5.924432 h -13.3754 v 35.00139 z m 0,0"
       id="path1"
       style="fill:#ff7405;fill-opacity:1;stroke-width:2.32616" /></g><g
     transform="matrix(0.35277777,0,0,0.35277777,-1.5999202,-3.3044242)"
     id="g328"
     style="display:inline;fill:#0ab0a6;fill-opacity:1"
     inkscape:label="side"><path
       d="m 0.359375,-8.34375 c 0,1.699219 -0.296875,3.183594 -0.890625,4.453125 -0.601562,1.273437 -1.640625,2.308594 -3.109375,3.109375 l -1.40625,-2.109375 c 1.074219,-0.632813 1.824219,-1.445313 2.25,-2.4375 0.429687,-1 0.640625,-2.007813 0.640625,-3.03125 0,-0.707031 -0.085938,-1.40625 -0.265625,-2.09375 -0.175781,-0.6875 -0.476563,-1.25 -0.90625,-1.6875 -0.425781,-0.445313 -1.007813,-0.671875 -1.75,-0.671875 -0.601563,0 -1.09375,0.203125 -1.46875,0.609375 -0.375,0.398437 -0.664063,0.933594 -0.875,1.609375 -0.207031,0.679688 -0.375,1.4375 -0.5,2.28125 -0.125,0.867188 -0.28125,1.703125 -0.46875,2.515625 -0.195313,0.8125 -0.476563,1.542969 -0.84375,2.1875 -0.375,0.648437 -0.867187,1.164063 -1.484375,1.546875 -0.613281,0.375 -1.390625,0.5625 -2.328125,0.5625 -0.832031,0 -1.550781,-0.203125 -2.15625,-0.609375 -0.613281,-0.40625 -1.117187,-0.929687 -1.515625,-1.578125 -0.394531,-0.65625 -0.6875,-1.382812 -0.875,-2.1875 -0.195312,-0.800781 -0.296875,-1.609375 -0.296875,-2.421875 0,-0.851563 0.08594,-1.6875 0.25,-2.5 0.167969,-0.8125 0.464844,-1.566406 0.890625,-2.265625 0.429688,-0.707031 1.039062,-1.300781 1.828125,-1.78125 l 1.4375,2.125 c -0.625,0.429688 -1.113281,1.03125 -1.46875,1.8125 -0.351563,0.773438 -0.53125,1.621094 -0.53125,2.546875 0,1.167969 0.230469,2.136719 0.6875,2.90625 0.449219,0.773437 1.054687,1.15625 1.8125,1.15625 0.5625,0 1.011719,-0.195313 1.34375,-0.59375 0.324219,-0.394531 0.570313,-0.910156 0.734375,-1.546875 0.167969,-0.644531 0.308594,-1.351562 0.421875,-2.125 0.136719,-0.90625 0.3125,-1.78125 0.53125,-2.625 0.21875,-0.851562 0.527344,-1.609375 0.921875,-2.265625 0.398438,-0.664063 0.914062,-1.191406 1.546875,-1.578125 0.636719,-0.394531 1.4375,-0.59375 2.40625,-0.59375 0.992187,0 1.828125,0.210938 2.515625,0.625 0.6875,0.40625 1.246094,0.960938 1.671875,1.65625 0.429687,0.6875 0.742187,1.464844 0.9375,2.328125 0.207031,0.867187 0.3125,1.757813 0.3125,2.671875 z m 0,0"
       id="path314"
       style="display:inline;fill:#0ab0a6;fill-opacity:1"
       transform="translate(22.425832,86.498616)" /><path
       d="M 0,-2.21875 H -17.59375 V -5 H 0 Z m 0,0"
       id="path317"
       style="display:inline;fill:#0ab0a6;fill-opacity:1"
       transform="translate(22.425832,63.486028)" /><path
       d="M 0,-2.21875 H -17.59375 V -8.875 c 0,-1.519531 0.25,-2.832031 0.75,-3.9375 0.492188,-1.101562 1.164062,-2.015625 2.015625,-2.734375 0.84375,-0.71875 1.792969,-1.253906 2.84375,-1.609375 1.042969,-0.351562 2.117187,-0.53125 3.21875,-0.53125 1.105469,0 2.179687,0.171875 3.21875,0.515625 1.03125,0.34375 1.96875,0.875 2.8125,1.59375 0.835937,0.71875 1.5,1.636719 2,2.75 C -0.242188,-11.710938 0,-10.394531 0,-8.875 Z M -2.71875,-5 v -3.875 c 0,-1.40625 -0.296875,-2.550781 -0.890625,-3.4375 -0.59375,-0.882812 -1.351563,-1.535156 -2.28125,-1.953125 -0.925781,-0.425781 -1.894531,-0.640625 -2.90625,-0.640625 -0.75,0 -1.484375,0.121094 -2.203125,0.359375 -0.71875,0.230469 -1.367188,0.589844 -1.953125,1.078125 -0.59375,0.492188 -1.066406,1.117188 -1.421875,1.875 -0.351562,0.761719 -0.53125,1.667969 -0.53125,2.71875 V -5 Z m 0,0"
       id="path320"
       style="display:inline;fill:#0ab0a6;fill-opacity:1"
       transform="translate(22.425832,49.843475)" /><path
       d="M 0,-2.21875 H -17.59375 V -15.125 h 2.75 v 10.09375 h 4.75 v -9.6875 h 2.609375 v 9.6875 h 4.71875 V -15.203125 H 0 Z m 0,0"
       id="path323"
       style="display:inline;fill:#0ab0a6;fill-opacity:1"
       transform="translate(22.425832,24.569997)" /></g><g
     transform="matrix(0.41030818,0,0,0.41030818,8.5181074,-1.9948922)"
     id="g204"
     inkscape:label="festival"
     style="fill:#737373;fill-opacity:1"><path
       d="m 6.203125,0 v -15.046875 h -5.78125 v -2.546875 h 14.375 v 2.546875 h -5.75 V 0 Z m 0,0"
       id="path193"
       transform="translate(1.119764,22.813849)"
       style="fill:#737373;fill-opacity:1" /><path
       d="M 2.21875,0 V -17.59375 H 8.875 c 1.519531,0 2.832031,0.25 3.9375,0.75 1.101562,0.492188 2.015625,1.164062 2.734375,2.015625 0.71875,0.84375 1.253906,1.792969 1.609375,2.84375 0.351562,1.042969 0.53125,2.117187 0.53125,3.21875 0,1.105469 -0.171875,2.179687 -0.515625,3.21875 -0.34375,1.03125 -0.875,1.96875 -1.59375,2.8125 -0.71875,0.835937 -1.636719,1.5 -2.75,2 C 11.710938,-0.242188 10.394531,0 8.875,0 Z M 5,-2.71875 h 3.875 c 1.40625,0 2.550781,-0.296875 3.4375,-0.890625 0.882812,-0.59375 1.535156,-1.351563 1.953125,-2.28125 0.425781,-0.925781 0.640625,-1.894531 0.640625,-2.90625 0,-0.75 -0.121094,-1.484375 -0.359375,-2.203125 -0.230469,-0.71875 -0.589844,-1.367188 -1.078125,-1.953125 -0.492188,-0.59375 -1.117188,-1.066406 -1.875,-1.421875 -0.761719,-0.351562 -1.667969,-0.53125 -2.71875,-0.53125 H 5 Z m 0,0"
       id="path196"
       transform="translate(22.775834,22.813849)"
       style="fill:#737373;fill-opacity:1" /><path
       d="M 9.421875,0.359375 C 8.066406,0.359375 6.820312,0.0703125 5.6875,-0.5 4.5625,-1.082031 3.660156,-1.941406 2.984375,-3.078125 c -0.667969,-1.132813 -1,-2.53125 -1,-4.1875 V -17.59375 H 4.78125 v 10.328125 c 0,1.625 0.445312,2.871094 1.34375,3.734375 0.894531,0.867188 2.023438,1.296875 3.390625,1.296875 1.34375,0 2.445313,-0.429687 3.3125,-1.296875 C 13.691406,-4.394531 14.125,-5.640625 14.125,-7.265625 V -17.59375 h 2.78125 v 10.328125 c 0,1.730469 -0.339844,3.15625 -1.015625,4.28125 -0.679687,1.117187 -1.589844,1.953125 -2.734375,2.515625 -1.136719,0.5507812 -2.382812,0.828125 -3.734375,0.828125 z m 0,0"
       id="path199"
       transform="translate(48.049313,22.813849)"
       style="fill:#737373;fill-opacity:1" /></g></svg>
