<?xml version="1.0" encoding="UTF-8" standalone="no"?>
<!-- Created with Inkscape (http://www.inkscape.org/) -->

<svg
   width="105.31689mm"
   height="52.61137mm"
   viewBox="0 0 105.31689 52.61137"
   version="1.1"
   id="svg1"
   xml:space="preserve"
   inkscape:export-filename="sidequester_logo.svg"
   inkscape:export-xdpi="96"
   inkscape:export-ydpi="96"
   sodipodi:docname="sidequester_bicycle.svg"
   inkscape:version="1.4.3 (0d15f75, 2025-12-25)"
   xmlns:inkscape="http://www.inkscape.org/namespaces/inkscape"
   xmlns:sodipodi="http://sodipodi.sourceforge.net/DTD/sodipodi-0.dtd"
   xmlns="http://www.w3.org/2000/svg"
   xmlns:svg="http://www.w3.org/2000/svg"><sodipodi:namedview
     id="namedview1"
     pagecolor="#000000"
     bordercolor="#000000"
     borderopacity="0.25"
     inkscape:showpageshadow="2"
     inkscape:pageopacity="0.0"
     inkscape:pagecheckerboard="0"
     inkscape:deskcolor="#d1d1d1"
     inkscape:document-units="mm"
     inkscape:zoom="2"
     inkscape:cx="259.75"
     inkscape:cy="121.25"
     inkscape:window-width="2560"
     inkscape:window-height="1369"
     inkscape:window-x="2552"
     inkscape:window-y="-8"
     inkscape:window-maximized="1"
     inkscape:current-layer="svg1"
     inkscape:clip-to-page="true"><inkscape:page
       x="0"
       y="0"
       width="105.31689"
       height="52.611366"
       id="page2"
       margin="0"
       bleed="0" /></sodipodi:namedview><defs
     id="defs1"><clipPath
       id="f8f2e01b76"><path
         d="M 74.457031,107 H 303.95703 V 212.38281 H 74.457031 Z m 0,0"
         clip-rule="nonzero"
         id="path13" /></clipPath><clipPath
       id="c708f30429"><path
         d="M 120,69.132812 H 303.95703 V 190 H 120 Z m 0,0"
         clip-rule="nonzero"
         id="path14" /></clipPath></defs><g
     clip-path="url(#f8f2e01b76)"
     id="g181"
     transform="matrix(0.35277777,0,0,0.35277777,-26.401833,-22.312564)"
     inkscape:label="wheels"
     style="display:inline"><path
       fill="#0a72bf"
       d="m 179.34375,159.96875 c 0,28.89844 -23.4375,52.41406 -52.25,52.41406 -28.816406,0 -52.253906,-23.51562 -52.253906,-52.41406 0,-28.89453 23.4375,-52.41016 52.253906,-52.41016 4.54297,0 8.94922,0.58985 13.15625,1.6836 l -4.61328,11.7539 c -2.75781,-0.60937 -5.61328,-0.9414 -8.55078,-0.9414 -21.90625,0 -39.722659,17.90625 -39.722659,39.91015 0,22 17.816409,39.90625 39.722659,39.90625 21.90625,0 39.72265,-17.90625 39.72265,-39.90625 0,-14.60547 -7.85156,-27.39453 -19.53515,-34.34765 l 4.60937,-11.76563 c 16.33985,8.87891 27.46094,26.21485 27.46094,46.11719 z m 52.79297,-34.71484 -4.39063,-11.83985 c -15.03515,7.81641 -25.82812,22.73438 -27.91406,40.3086 h 12.63281 c 1.91016,-12.20313 9.35938,-22.58204 19.67188,-28.46875 z m 19.55469,-17.69141 c -4.21485,0 -8.30079,0.51953 -12.22266,1.46484 l 4.38281,11.82032 c 2.53906,-0.50782 5.15235,-0.78125 7.83985,-0.78125 21.90234,0 39.71875,17.90625 39.71875,39.91015 0,22.00391 -17.81641,39.90625 -39.71875,39.90625 -19.78907,0 -36.23829,-14.60937 -39.23829,-33.66015 h -12.63281 c 3.08985,25.96093 25.16016,46.16015 51.86328,46.16015 28.8125,0 52.25,-23.51172 52.25,-52.41406 0,-28.90234 -23.42968,-52.40625 -52.24218,-52.40625 z m 0,0"
       fill-opacity="1"
       fill-rule="nonzero"
       id="path180" /></g><g
     clip-path="url(#c708f30429)"
     id="g184"
     transform="matrix(0.35277777,0,0,0.35277777,-26.401833,-22.312564)"
     inkscape:label="frame"><path
       fill="#0ab0a6"
       d="m 169.09961,69.132812 h 13.11914 c 3.46094,0 6.26172,2.792969 6.26172,6.246094 0,3.453125 -2.80078,6.25 -6.26172,6.25 h -17.6875 m -5.01172,12.773438 h 45.63672 c 3.46094,0.0078 6.26172,2.800781 6.26172,6.253906 0,3.45313 -2.80078,6.25 -6.26172,6.25 h -50.53906"
       fill-opacity="1"
       fill-rule="nonzero"
       id="path184"
       inkscape:label="path184"
       sodipodi:nodetypes="cssscccssc"
       style="display:inline" /><path
       fill="#dd5e05"
       d="m 87.315252,45.977539 c 0,1.218184 -0.988053,2.204861 -2.208995,2.204861 H 68.867455 c -1.220943,0 -2.208996,-0.986677 -2.208996,-2.204861 0,-1.218188 0.988053,-2.203482 2.208996,-2.203482 h 16.238802 c 1.218184,0 2.208995,0.985294 2.208995,2.203482 z m 0,0"
       fill-opacity="1"
       fill-rule="nonzero"
       id="path181"
       style="stroke-width:0.352778"
       transform="matrix(2.8346458,0,0,2.8346458,-7.9843668,29.638716)" /><path
       fill="#ff7405"
       d="m 92.374029,48.045973 c -0.254938,0.09233 -0.512628,0.137806 -0.766188,0.137806 -0.897103,0 -1.743219,-0.549839 -2.072569,-1.438674 L 84.709382,33.73367 83.160465,29.555458 81.775537,25.820974 c -0.424434,-1.142393 0.159854,-2.410188 1.305003,-2.833246 1.143772,-0.42168 2.414322,0.16123 2.83876,1.303624 l 1.379414,3.716569 1.546158,4.171322 4.836915,13.036239 c 0.420303,1.139638 -0.163985,2.407433 -1.307758,2.830491 z m 0,0"
       fill-opacity="1"
       fill-rule="nonzero"
       id="path182"
       style="stroke-width:0.352778"
       transform="matrix(2.8346458,0,0,2.8346458,-7.9843668,29.638716)" /><path
       fill="#e5b048"
       d="m 94.405256,18.772309 c 0,1.218186 -0.989428,2.204861 -2.208995,2.204861 H 81.418625 c -1.22094,0 -2.208996,-0.986675 -2.208996,-2.204861 0,-1.218185 0.988056,-2.204861 2.208996,-2.204861 h 10.777636 c 1.219567,-0.0014 2.208995,0.986676 2.208995,2.204861 z m 0,0"
       fill-opacity="1"
       fill-rule="nonzero"
       id="path183"
       style="stroke-width:0.352778"
       transform="matrix(2.8346458,0,0,2.8346458,-7.9843668,29.638716)" /></g><g
     id="g9"
     inkscape:label="pen"
     style="display:inline"
     transform="translate(-63.349791,-110.0171)"><path
       fill="#e5b048"
       d="m 168.92969,67.546875 c 0.25,1.71875 0.0898,3.460937 -0.34766,5.148437 -0.34766,1.355469 -0.77734,2.6875 -1.17187,4.027344 l -13.21094,33.984374 c -0.74219,1.84766 -1.48828,3.69922 -2.23047,5.54688 -0.23438,0.57812 -0.47266,1.16015 -0.70313,1.74218 -1.92578,4.8711 -3.85937,9.73829 -5.77343,14.61328 -1.01172,2.58594 -1.98047,5.19141 -2.98438,7.78125 -1.91015,4.92579 -3.83203,9.84375 -5.73437,14.77344 -0.5,1.29297 -0.91797,2.61719 -1.42188,3.90625 -0.125,0.31641 -0.44531,0.55469 -0.67969,0.82422 -0.33593,0.64453 -0.67578,1.28906 -1.01171,1.93359 -0.46485,0.78516 -0.86329,1.61719 -1.40235,2.35157 -0.72656,0.99218 -1.48437,1.98437 -2.36719,2.83203 -1.23437,1.1875 -2.55859,2.28906 -3.91406,3.32812 -0.70703,0.54297 -1.53906,0.95703 -2.48047,1.02735 -0.53515,-0.26172 -1.07031,-0.52735 -1.60546,-0.79297 -0.26954,-0.88672 -0.64063,-1.75781 -0.79297,-2.66406 -0.28907,-1.7461 -0.54297,-3.50391 -0.65235,-5.26563 -0.12109,-2.01953 -0.12109,-4.05078 0.37891,-6.03516 0.0352,-0.14062 0.15234,-0.26171 0.23047,-0.39062 0.22656,-0.52344 0.45312,-1.04297 0.67969,-1.5625 0.0742,-0.26172 0.11718,-0.53906 0.22265,-0.78906 2.08203,-5.09375 4.19531,-10.17578 6.25,-15.27735 1.78516,-4.42968 3.51172,-8.88281 5.26172,-13.32812 0.74219,-1.875 1.47266,-3.75391 2.21094,-5.63281 1.57422,-4.01172 3.15625,-8.01563 4.71875,-12.03125 0.83593,-2.15235 1.64843,-4.31641 2.4375,-6.48828 0.13672,-0.375 12.86328,-33.058599 13.97656,-34.417974 0.94531,-1.160156 2.08203,-2.207031 3.48828,-2.878906 1.47656,-0.707031 2.98438,-0.648438 4.54688,-0.371094 1.23046,0.21875 2.37109,0.609375 3.0664,1.664063 0.48047,0.722656 0.89063,1.589843 1.01563,2.441406 z m 0,0"
       fill-opacity="1"
       fill-rule="nonzero"
       id="path185"
       style="display:inline"
       transform="matrix(0.35277777,0,0,0.35277777,36.947957,87.704536)" /><path
       fill="#ff7405"
       d="m 168.92969,67.546875 c 0.25,1.71875 0.0898,3.460937 -0.34766,5.148437 -0.34766,1.355469 -0.77734,2.6875 -1.17187,4.027344 l -10.76172,27.683594 c -1.23828,-0.42969 -4.91797,-1.55469 -6.14844,-2.00781 -1.58594,-0.58594 -3.14844,-1.22266 -4.73047,-1.8086 -0.75391,-0.28125 -1.53125,-0.5 -2.30469,-0.726559 -0.14062,-0.03906 -0.3125,0.01563 -0.46875,0.02734 -0.46875,-0.171875 -0.52734,-0.441406 -0.34375,-0.914063 1.60157,-4.121093 3.02735,-8.304687 4.70703,-12.394531 2.73829,-6.667969 4.82032,-14.222656 9.45313,-19.890625 0.94531,-1.160156 2.08203,-2.207031 3.48828,-2.878906 1.47656,-0.707031 2.98438,-0.648438 4.54688,-0.371094 1.23046,0.21875 2.37109,0.613282 3.0664,1.664063 0.48047,0.722656 0.89063,1.589843 1.01563,2.441406 z m 0,0"
       fill-opacity="1"
       fill-rule="nonzero"
       id="path187"
       style="display:inline"
       transform="matrix(0.35277777,0,0,0.35277777,36.947957,87.704536)" /><path
       fill="#737373"
       d="m 154.22266,103.67969 c 0.95312,-2.58203 1.91015,-5.167971 2.86718,-7.750002 0.28516,-0.761719 0.58203,-1.519532 0.8711,-2.277344 1.36328,-3.605469 2.73047,-7.207032 4.08984,-10.8125 0.74609,-1.972656 1.49219,-3.945313 2.21875,-5.929688 0.21875,-0.589844 0.61328,-0.773437 1.19141,-0.644531 0.64843,0.144531 1.30078,0.304687 1.94922,0.457031 0.34375,0.136719 0.6914,0.261719 1.02734,0.40625 0.54687,0.238282 0.77344,0.667969 0.58203,1.226563 -0.24609,0.71875 -0.55859,1.414062 -0.83984,2.121093 -2.32422,5.835938 -4.66797,11.667969 -6.96875,17.515626 -0.78907,2.003906 -1.48438,4.046872 -2.19141,6.082032 -0.60547,1.75 -1.17969,3.50781 -1.75,5.26953 -0.4375,1.35547 -1.43359,1.6875 -2.67578,1.37109 -0.12109,-0.0312 -0.26172,-0.004 -0.39453,-0.008 -0.75,-0.33594 -1.5,-0.67187 -2.33985,-1.04687 0.82032,-2.07422 1.58985,-4.02735 2.36329,-5.98047 z m -19.55079,56.21484 c -1.21875,-0.49609 -2.43359,-0.99609 -3.65234,-1.48828 -3.09375,-1.25 -6.1914,-2.5 -9.28515,-3.75 -0.22657,0.51953 -0.45313,1.03906 -0.67969,1.5625 0.36719,0.1875 0.72265,0.39844 1.09765,0.56641 3.54297,1.54296 7.08985,3.08203 10.63282,4.625 0.29687,0.1289 0.58203,0.27734 0.875,0.41796 0.33593,-0.64453 0.67578,-1.28906 1.01171,-1.93359 z m -13.11328,11.05469 c -0.32031,0.83594 -0.61718,1.67969 -0.91796,2.52344 -0.21485,0.61328 0.082,1.03906 0.58984,1.29687 0.52734,0.27344 1.09375,0.0977 1.30078,-0.40625 0.39844,-0.96484 0.65234,-1.99219 0.96484,-2.99609 -0.53515,-0.26172 -1.07031,-0.52735 -1.60546,-0.79297 -0.11329,0.125 -0.27735,0.23047 -0.33204,0.375 z m 0,0"
       fill-opacity="1"
       fill-rule="nonzero"
       id="path190"
       style="display:inline"
       transform="matrix(0.35277777,0,0,0.35277777,36.947957,87.704536)" /></g><g
     id="g399"
     inkscape:label="chaos cubes"
     transform="translate(-63.349791,-110.0171)"><g
       id="g8"
       inkscape:label="big blue chaos"
       transform="matrix(0.35277777,0,0,0.35277777,39.593792,87.704536)"
       style="display:inline"><path
         fill="#ffffff"
         d="m 310.74219,107.62891 -8.3125,16.95703 -11.3086,-13.60156 8.3125,-16.960942 z m 0,0"
         fill-opacity="1"
         fill-rule="nonzero"
         id="path204"
         style="display:inline"
         transform="translate(-1.2992127e-6)" /><path
         fill="#ffffff"
         d="m 328.4375,108.20313 -0.0156,0.0352 -17.67968,-0.60937 -11.3086,-13.605472 0.0156,-0.03516 17.67969,0.609375 z m 0,0"
         fill-opacity="1"
         fill-rule="nonzero"
         id="path207"
         style="display:inline"
         transform="translate(-1.2992127e-6)" /><path
         fill="#0a72bf"
         d="m 328.42187,108.23828 -8.3125,16.95703 -17.67968,-0.60937 8.3125,-16.95703 z m 0,0"
         fill-opacity="1"
         fill-rule="nonzero"
         id="path210"
         style="display:inline"
         transform="translate(-1.2992127e-6)" /><path
         fill="#0a72bf"
         d="M 328.85156,107.80859 317.54297,94.207031 c -0.10547,-0.128906 -0.24219,-0.195312 -0.40625,-0.199219 l -17.67969,-0.609374 c -0.24219,-0.0078 -0.41406,0.09375 -0.51953,0.308593 l -8.33203,16.996099 c -0.10547,0.21484 -0.082,0.41406 0.0703,0.59765 l 11.30859,13.60547 c 0.10547,0.12891 0.24219,0.19531 0.41016,0.19922 l 17.67969,0.60937 c 0.23828,0.008 0.41406,-0.0937 0.51953,-0.30859 l 8.33203,-16.99609 c 0.10547,-0.21485 0.082,-0.41407 -0.0742,-0.60157 z m -26.55859,15.72657 -10.53125,-12.66797 7.78125,-15.863284 10.52734,12.667974 z m 8.70312,-16.49219 -10.38281,-12.492189 16.23438,0.558594 10.38671,12.492185 z m 8.75391,17.54687 -16.45703,-0.5664 7.77734,-15.86328 16.46094,0.5664 z m 0,0"
         fill-opacity="1"
         fill-rule="nonzero"
         id="path213"
         style="display:inline"
         transform="translate(-1.2992127e-6)" /></g><g
       id="g7"
       inkscape:label="big orange cube"
       transform="matrix(0.35277777,0,0,0.35277777,39.593792,87.704536)"
       style="display:inline"><path
         fill="#ffffff"
         d="m 345.47266,127.24609 10.15234,15.92969 -17.5,2.57422 -10.15234,-15.92969 z m 0,0"
         fill-opacity="1"
         fill-rule="nonzero"
         id="path216"
         style="display:inline"
         transform="translate(-1.2992127e-6)" /><path
         fill="#ffffff"
         d="m 355.17578,112.4375 0.0234,0.0312 -9.72656,14.77734 -17.5,2.57422 -0.0195,-0.0312 9.72266,-14.77734 z m 0,0"
         fill-opacity="1"
         fill-rule="nonzero"
         id="path219"
         style="display:inline"
         transform="translate(-1.2992127e-6)" /><path
         fill="#dd5e05"
         d="m 355.19922,112.46875 10.15234,15.92969 -9.72656,14.77734 -10.15234,-15.92969 z m 0,0"
         fill-opacity="1"
         fill-rule="nonzero"
         id="path222"
         style="display:inline"
         transform="translate(-1.2992127e-6)" /><path
         fill="#dd5e05"
         d="m 355.05859,111.87891 -17.5039,2.57422 c -0.16407,0.0234 -0.29297,0.10546 -0.38282,0.24609 l -9.72265,14.77734 c -0.13281,0.20313 -0.13281,0.40235 -0.004,0.60547 l 10.17188,15.96094 c 0.1289,0.20312 0.3125,0.28515 0.55078,0.25 l 17.5,-2.57422 c 0.16406,-0.0234 0.29297,-0.10547 0.38281,-0.24219 l 9.72656,-14.78125 c 0.12891,-0.19922 0.13282,-0.40234 0.004,-0.60547 l -10.17188,-15.95703 c -0.1289,-0.20312 -0.3125,-0.28906 -0.55078,-0.2539 z m -0.40234,30.86328 -16.29297,2.39843 -9.49609,-14.89843 16.29297,-2.39844 z m -9.54688,-16.01563 -16.07421,2.36328 8.92968,-13.57031 16.07422,-2.36328 z m 19.53907,1.66016 -9.05469,13.75781 -9.49609,-14.89844 9.05468,-13.75781 z m 0,0"
         fill-opacity="1"
         fill-rule="nonzero"
         id="path225"
         style="display:inline"
         transform="translate(-1.2992127e-6)" /></g><g
       id="g6"
       inkscape:label="big teal chaos cube"
       transform="matrix(0.35277777,0,0,0.35277777,39.593792,87.704536)"
       style="display:inline"><path
         fill="#ffffff"
         d="m 314.59375,163.85156 0.0234,-0.0352 17.50781,2.52343 9.76953,14.7461 -0.0195,0.0312 -17.51172,-2.51953 z m 0,0"
         fill-opacity="1"
         fill-rule="nonzero"
         id="path231"
         style="display:inline"
         transform="translate(-1.2992127e-6)" /><path
         fill="#ffffff"
         d="m 332.125,166.33984 10.10156,-15.96093 9.76953,14.75 -10.10156,15.95703 z m 0,0"
         fill-opacity="1"
         fill-rule="nonzero"
         id="path228"
         style="display:inline"
         transform="translate(-1.2992127e-6)" /><path
         fill="#0ab0a6"
         d="m 314.61719,163.81641 10.10156,-15.95704 17.50781,2.51954 -10.10156,15.96093 z m 0,0"
         fill-opacity="1"
         fill-rule="nonzero"
         id="path234"
         style="display:inline"
         transform="translate(-1.2992127e-6)" /><path
         fill="#0ab0a6"
         d="m 314.14062,164.19531 9.76954,14.75 c 0.0937,0.13672 0.21875,0.21875 0.38671,0.24219 l 17.50782,2.51953 c 0.23828,0.0352 0.42187,-0.0508 0.55078,-0.25391 l 10.12109,-15.98828 c 0.12891,-0.20312 0.12891,-0.40625 -0.004,-0.60547 l -9.76954,-14.75 c -0.0937,-0.13671 -0.21875,-0.21875 -0.38281,-0.24218 l -17.51172,-2.51953 c -0.23828,-0.0352 -0.42187,0.0469 -0.55078,0.25 l -10.12109,15.99218 c -0.12891,0.20313 -0.12891,0.40625 0.004,0.60547 z m 28.10938,-12.7539 9.09375,13.73046 -9.44922,14.92969 -9.09375,-13.73047 z m -10.44141,15.44921 8.97266,13.54688 -16.08203,-2.31641 -8.96875,-13.54297 z M 325.00781,148.5 l 16.30078,2.34766 -9.44922,14.92578 -16.30468,-2.34766 z m 0,0"
         fill-opacity="1"
         fill-rule="nonzero"
         id="path237"
         style="display:inline"
         transform="translate(-1.2992127e-6)" /></g><g
       id="g5"
       inkscape:label="small orange chaos cube"
       transform="matrix(0.35277777,0,0,0.35277777,39.593792,87.704536)"
       style="display:inline"><path
         fill="#ffffff"
         d="m 314.86719,192.4375 -0.77344,14.86328 -12.40625,-6.35547 0.76953,-14.86328 z m 0,0"
         fill-opacity="1"
         fill-rule="nonzero"
         id="path240"
         style="display:inline"
         transform="translate(-1.2992127e-6)" /><path
         fill="#ffffff"
         d="m 327.86719,187.37109 v 0.0273 l -13,5.03906 -12.41016,-6.35547 0.004,-0.0312 13,-5.03516 z m 0,0"
         fill-opacity="1"
         fill-rule="nonzero"
         id="path243"
         style="display:inline"
         transform="translate(-1.2992127e-6)" /><path
         fill="#ff7405"
         d="m 327.86719,187.39844 -0.77344,14.86718 -13,5.03516 0.77344,-14.86328 z m 0,0"
         fill-opacity="1"
         fill-rule="nonzero"
         id="path246"
         style="display:inline"
         transform="translate(-1.2992127e-6)" /><path
         fill="#ff7405"
         d="m 328.04687,186.95703 -12.41015,-6.35156 c -0.11719,-0.0625 -0.23438,-0.0664 -0.35938,-0.0195 l -13,5.03515 c -0.17578,0.0703 -0.26953,0.19532 -0.27734,0.38672 l -0.77344,14.89453 c -0.0117,0.1875 0.0703,0.32813 0.23828,0.41407 L 313.875,207.668 c 0.11328,0.0625 0.23437,0.0664 0.35547,0.0195 l 13,-5.03516 c 0.17969,-0.0703 0.26953,-0.19531 0.28125,-0.38672 l 0.77344,-14.89453 c 0.008,-0.1875 -0.0703,-0.32812 -0.23829,-0.41406 z m -14.375,19.625 -11.55468,-5.91797 0.72265,-13.90625 11.55078,5.91797 z m 1.19922,-14.64844 -11.39843,-5.83593 11.9414,-4.625 11.39453,5.83593 z m 11.77735,10.00391 -12.10157,4.6875 0.72266,-13.90234 12.10156,-4.69141 z m 0,0"
         fill-opacity="1"
         fill-rule="nonzero"
         id="path249"
         style="display:inline"
         transform="translate(-1.2992127e-6)" /></g></g></svg>
